<svg width="32" height="26" viewBox="0 0 32 26" fill="none" xmlns="http://www.w3.org/2000/svg">
<g id="IMAGE" clip-path="url(#clip0_2_504)">
<path id="Vector" d="M14.8854 3.87481L9.41036 14.0748L5.96036 15.0498C6.36036 14.2998 6.81036 13.6998 7.31036 13.2498C7.81036 12.7498 8.38536 12.4998 9.03536 12.4998C10.4854 12.4998 11.7854 13.0998 12.9354 14.2998C14.1354 15.4498 14.7354 16.9498 14.7354 18.7998C14.7354 20.7498 14.0604 22.4248 12.7104 23.8248C11.4104 25.2248 9.78536 25.9248 7.83536 25.9248C5.98536 25.9248 4.36036 25.2498 2.96036 23.8998C1.61036 22.4998 0.935364 20.7998 0.935364 18.7998C0.935364 17.9998 1.08536 17.0748 1.38536 16.0248C1.73536 14.9748 2.36036 13.5998 3.26036 11.8998L9.26036 0.799805L14.8854 3.87481ZM31.7604 3.87481L26.2854 14.0748L22.9104 15.0498C23.2604 14.2998 23.6854 13.6998 24.1854 13.2498C24.7354 12.7498 25.3104 12.4998 25.9104 12.4998C27.3604 12.4998 28.6854 13.0998 29.8854 14.2998C31.0854 15.4498 31.6854 16.9498 31.6854 18.7998C31.6854 20.7498 31.0104 22.4248 29.6604 23.8248C28.3604 25.2248 26.7354 25.9248 24.7854 25.9248C22.9354 25.9248 21.3104 25.2498 19.9104 23.8998C18.5604 22.4998 17.8854 20.7998 17.8854 18.7998C17.8854 17.9998 18.0354 17.0748 18.3354 16.0248C18.6354 14.9748 19.2354 13.5998 20.1354 11.8998L26.2104 0.799805L31.7604 3.87481Z" fill="#D1B06B"/>
</g>
<defs>
<clipPath id="clip0_2_504">
<rect width="32" height="26" fill="white"/>
</clipPath>
</defs>
</svg>
