<svg style="display:none" xmlns="http://www.w3.org/2000/svg">
    <symbol id="logo-1" viewBox="0 0 137 45">
        <g>
            <path fill="#E5E5E5" d="M0 0h137v45H0z"/><g clip-path="url(#a)"><path fill="#161D27" d="M-101-4264h1440V9400H-101z"/><path d="M-101-241h1440v446H-101v-446Z" fill="#fff"/><g clip-path="url(#b)" fill="#B1B1B1"><path d="M12.137.985v.192l-.804.192V9.86l.804.191v.192H8.325v-.191l.804-.192V2.62l-3.157 7.756H5.57L1.474 2.622v7.032l1.073.399v.191H0v-.191l1.072-.399V1.37l-.804-.192V.985h1.668c.253 0 .477.03.655.089a1.683 1.683 0 0 1 .864.59c.104.132.194.294.283.457l2.919 5.528L8.89 2.121c.074-.192.149-.354.253-.487.09-.133.208-.25.342-.354a1.25 1.25 0 0 1 .492-.22c.193-.045.432-.075.73-.075h1.43ZM16.903 3.448c.55 0 1.057.073 1.489.236.432.162.804.398 1.117.693.313.31.536.678.7 1.105.164.428.238.93.238 1.475s-.074 1.046-.238 1.474a3.27 3.27 0 0 1-.7 1.106c-.313.31-.685.53-1.117.693-.432.162-.938.236-1.49.236-.55 0-1.057-.074-1.489-.236a3.314 3.314 0 0 1-1.116-.693 3.057 3.057 0 0 1-.7-1.106c-.164-.428-.239-.929-.239-1.474 0-.546.075-1.047.239-1.475a3.27 3.27 0 0 1 .7-1.105c.312-.31.685-.531 1.117-.693.431-.163.923-.236 1.489-.236Zm0 6.767a.848.848 0 0 0 .461-.147c.15-.104.283-.266.402-.517.12-.25.224-.575.298-.987a9.42 9.42 0 0 0 .12-1.593c0-.648-.045-1.18-.12-1.592-.074-.413-.178-.752-.297-.988-.12-.236-.254-.412-.403-.516a.78.78 0 0 0-.461-.147.848.848 0 0 0-.462.147c-.149.104-.283.266-.402.516a3.93 3.93 0 0 0-.298.988c-.074.428-.119.958-.119 1.592 0 .65.045 1.18.12 1.593.074.412.178.752.297.987.12.236.253.413.402.517a.898.898 0 0 0 .462.147ZM26.955.985c.804 0 1.206.398 1.206 1.195v7.696l.805.191v.192h-1.207c-.327 0-.58-.044-.774-.148a1.69 1.69 0 0 1-.462-.339 1.447 1.447 0 0 1-.298-.5c-.119.235-.268.427-.446.604-.15.147-.358.28-.61.412-.254.133-.552.192-.895.192-.387 0-.744-.074-1.072-.221a2.225 2.225 0 0 1-.864-.664 3.323 3.323 0 0 1-.58-1.09c-.15-.443-.209-.944-.209-1.534 0-.59.075-1.09.209-1.533.149-.442.342-.796.61-1.091.254-.295.566-.516.924-.664.357-.147.76-.22 1.206-.22.238 0 .447.029.64.073.194.059.358.118.492.192.164.073.298.162.417.265v-2.58l-.805-.192V1.03h1.713V.985Zm-.938 3.391a1.751 1.751 0 0 0-.313-.265 2.374 2.374 0 0 0-.327-.192.802.802 0 0 0-.373-.073.931.931 0 0 0-.476.132c-.15.089-.268.236-.387.457-.105.221-.194.546-.254.944-.06.413-.089.929-.089 1.577 0 .634.03 1.136.09 1.534.059.398.133.707.238.929.089.22.193.383.327.457.12.073.239.118.358.118a.922.922 0 0 0 .536-.163c.149-.103.268-.236.372-.368.12-.162.223-.34.313-.531V4.376h-.015ZM33.448 10.48c-1.147 0-2.04-.31-2.666-.929-.64-.619-.953-1.489-.953-2.58 0-.545.075-1.046.238-1.474.164-.428.388-.796.67-1.106.284-.31.626-.53 1.043-.693a3.552 3.552 0 0 1 1.34-.236c.507 0 .953.074 1.34.207.403.147.73.339 1.013.575.283.236.492.516.64.84.15.325.224.664.224 1.032 0 .118 0 .236-.015.325l-.044.25c-.03.089-.045.162-.075.221-.387.074-.804.148-1.251.192a13.58 13.58 0 0 1-1.296.133c-.491.03-.997.059-1.533.059 0 .545.044 1.002.119 1.37.074.37.193.664.327.87.15.222.313.37.507.458.193.088.417.132.64.132.268 0 .521-.044.76-.147.238-.103.446-.221.61-.383.179-.163.313-.354.417-.56.104-.207.149-.413.149-.635h.328c0 .266-.06.516-.18.767-.118.25-.297.472-.52.664-.224.191-.492.339-.805.457-.297.132-.64.191-1.027.191Zm-1.34-3.523c.298 0 .566 0 .804-.015.238-.015.432-.03.596-.044.193-.015.342-.045.476-.06.015-.088.045-.191.06-.294.015-.103.03-.207.044-.325.015-.118.015-.25.015-.383 0-.398-.03-.737-.09-1.002a2.303 2.303 0 0 0-.237-.664c-.09-.162-.194-.295-.328-.354s-.238-.103-.358-.103a.598.598 0 0 0-.357.133c-.119.088-.223.25-.327.472a4.59 4.59 0 0 0-.239.987c-.06.428-.06.973-.06 1.652ZM41.966 3.904c-.268 0-.506.06-.715.163a2.437 2.437 0 0 0-.536.368c-.164.162-.298.34-.432.531v4.91l.805.191v.192h-3.753v-.192l.804-.192V4.037l-.804-.192v-.191h1.206c.313 0 .566.059.775.162.193.103.357.221.476.34.134.147.238.309.298.486.134-.192.298-.369.491-.531.164-.133.373-.25.626-.369.253-.118.536-.162.879-.162.476 0 .833.118 1.072.324.238.222.342.531.342.93 0 .294-.09.545-.268.722-.179.177-.432.265-.73.265h-.208c-.075 0-.12-.015-.164-.015-.06-.014-.119-.014-.164-.044V3.904ZM49.264 5.63c0-.295-.03-.56-.09-.782a1.47 1.47 0 0 0-.238-.53.73.73 0 0 0-.328-.31.824.824 0 0 0-.357-.104.922.922 0 0 0-.536.163 1.466 1.466 0 0 0-.373.368c-.119.162-.208.34-.297.53v4.91l.804.192v.192h-3.753v-.192l.804-.192V4.037l-.804-.192v-.191h1.206c.313 0 .566.059.775.162.193.103.357.221.476.339.134.147.238.31.298.487.12-.222.268-.428.447-.605.149-.147.357-.28.596-.413.238-.132.55-.191.908-.191a2.7 2.7 0 0 1 1.057.191c.328.118.596.295.82.487.223.206.401.427.535.693.135.265.194.53.194.81v4.247l.804.191v.192H50.47c-.804 0-1.206-.398-1.206-1.194V5.63ZM1.415 19.577v-.546h10.35v.546l-2.174.545v11.131h7.803v-11.13l-2.174-.546v-.546h10.35v.546l-2.174.545v23l2.174.545v.546H15.22v-.56l2.174-.546V32.153H9.591v10.954l2.174.546v.545H1.415v-.545l2.174-.546v-23l-2.174-.53ZM38.437 25.68c1.504 0 2.844.222 4.036.65a8.13 8.13 0 0 1 3.023 1.887 8.086 8.086 0 0 1 1.906 3.007c.432 1.18.655 2.506.655 3.996 0 1.489-.223 2.816-.655 3.995a8.027 8.027 0 0 1-1.906 2.993c-.834.825-1.847 1.46-3.023 1.887-1.192.428-2.532.649-4.036.649-1.504 0-2.845-.221-4.036-.649a8.13 8.13 0 0 1-3.023-1.887 8.146 8.146 0 0 1-1.906-2.993c-.432-1.18-.656-2.506-.656-3.995 0-1.49.224-2.816.656-3.996a8.205 8.205 0 0 1 1.906-3.008c.834-.84 1.846-1.46 3.023-1.887 1.191-.427 2.532-.648 4.036-.648Zm0 18.327c.417 0 .819-.133 1.236-.398.417-.266.774-.723 1.102-1.386.328-.664.596-1.563.804-2.698.209-1.136.313-2.58.313-4.335 0-1.754-.104-3.2-.313-4.334-.208-1.136-.477-2.035-.804-2.699-.328-.663-.7-1.12-1.102-1.385-.402-.266-.82-.398-1.236-.398-.417 0-.82.132-1.236.398-.417.265-.775.722-1.102 1.386-.328.663-.596 1.562-.804 2.698-.209 1.135-.313 2.58-.313 4.334 0 1.755.104 3.2.313 4.335.208 1.135.476 2.034.804 2.698.327.663.7 1.12 1.102 1.386.417.265.819.398 1.236.398ZM75.265 31.607c0-.855-.074-1.592-.223-2.167-.149-.575-.328-1.062-.566-1.43-.238-.369-.491-.634-.76-.811-.282-.162-.55-.25-.819-.25-.461 0-.863.147-1.22.442a5.786 5.786 0 0 0-.924.987 8.162 8.162 0 0 0-.76 1.43v13.299l2.19.546v.545H62.026v-.545l2.175-.546v-11.5c0-.855-.075-1.592-.224-2.167-.149-.575-.328-1.062-.566-1.43-.238-.369-.491-.634-.76-.811-.282-.162-.55-.25-.818-.25-.462 0-.864.147-1.222.442a5.786 5.786 0 0 0-.923.987 7.276 7.276 0 0 0-.76 1.43v13.299l2.175.546v.545H50.946v-.545l2.175-.546V27.302l-2.175-.545v-.546h3.262c.849 0 1.549.148 2.085.428.55.28.968.604 1.295.928.358.413.626.856.804 1.327.313-.604.7-1.135 1.162-1.621a7.198 7.198 0 0 1 1.52-1.12c.61-.34 1.34-.502 2.218-.502 1.445 0 2.71.324 3.753.958 1.057.634 1.861 1.46 2.412 2.462.313-.619.7-1.18 1.162-1.695a7.368 7.368 0 0 1 1.519-1.18c.61-.354 1.34-.545 2.219-.545.998 0 1.891.162 2.725.472.82.31 1.534.737 2.13 1.282a5.753 5.753 0 0 1 1.385 1.887c.327.723.491 1.49.491 2.3v11.5l2.175.546v.545h-4.721c-2.175 0-3.262-1.076-3.262-3.229v-9.347h-.015ZM95.236 44.729c-3.098 0-5.51-.84-7.223-2.536-1.712-1.696-2.576-4.01-2.576-6.989 0-1.489.223-2.816.655-3.995a8.866 8.866 0 0 1 1.817-3.008 7.556 7.556 0 0 1 2.815-1.887c1.102-.427 2.308-.648 3.603-.648 1.356 0 2.577.191 3.65.575 1.071.383 1.995.899 2.739 1.547a6.8 6.8 0 0 1 1.728 2.286c.402.87.595 1.798.595 2.786 0 .34-.014.634-.059.885-.045.25-.075.472-.134.663a16.75 16.75 0 0 0-.179.605 42.622 42.622 0 0 1-3.38.545c-1.013.148-2.19.266-3.515.384a53.865 53.865 0 0 1-4.17.162c0 1.489.105 2.727.328 3.715.223.988.521 1.784.908 2.374.388.59.85 1.002 1.385 1.253.536.25 1.117.383 1.743.383.73 0 1.414-.132 2.055-.398a5.535 5.535 0 0 0 1.668-1.061c.476-.443.849-.944 1.132-1.504.282-.56.417-1.135.417-1.71h.908c0 .722-.164 1.415-.492 2.078a5.367 5.367 0 0 1-1.399 1.784 7.077 7.077 0 0 1-2.175 1.239 8.397 8.397 0 0 1-2.844.472Zm-3.634-9.525c.82 0 1.549-.014 2.174-.059.626-.044 1.162-.073 1.594-.117.506-.045.938-.104 1.31-.177.045-.236.105-.502.18-.797.044-.265.088-.56.118-.884.03-.325.06-.664.06-1.017 0-1.077-.09-1.976-.253-2.713-.164-.737-.388-1.327-.64-1.784-.254-.457-.552-.781-.864-.973-.328-.192-.656-.295-.968-.295-.313 0-.64.118-.968.339-.328.236-.611.663-.864 1.297-.253.634-.462 1.534-.64 2.684-.15 1.15-.239 2.654-.239 4.496ZM120.865 43.83V29.248L107.85 19.046V43.83h13.015ZM136.964 43.83V29.248l-12.807-10.202V43.83h12.807Z"/></g></g><defs><clipPath id="a"><path fill="#fff" transform="translate(-101 -4264)" d="M0 0h1440v13664H0z"/></clipPath><clipPath id="b"><path fill="#fff" d="M0 0h137v45H0z"/></clipPath></defs>
        </g>
    </symbol>

    <symbol id="logo-2" viewBox="0 0 108 106">
        <g>
            <g style="mix-blend-mode:multiply" clip-path="url(#a)"><path d="M54.321 104.943c29.067 0 52.629-23.327 52.629-52.103C106.95 24.065 83.387.737 54.321.737S1.692 24.065 1.692 52.84c0 28.776 23.563 52.103 52.63 52.103Z" fill="#fff" style="mix-blend-mode:multiply"/><path d="M54.321 105.68C24.894 105.68.948 81.973.948 52.84.948 23.707 24.894 0 54.32 0c29.427 0 53.374 23.707 53.374 52.84 0 29.133-23.947 52.84-53.374 52.84Zm0-104.206c-28.608 0-51.884 23.044-51.884 51.366s23.276 51.366 51.884 51.366 51.885-23.044 51.885-51.366S82.929 1.474 54.321 1.474Z" fill="#B1B1B1" style="mix-blend-mode:multiply"/><path d="M61.827 6.03c.357.03.67.044.923.044l-.03.236c-.416.06-.774.369-1.057.959l-3.544 7.018-.104-.015-.09-.015-2.248-7.829c-.15-.516-.403-.796-.76-.84l.03-.236c.327.059.76.103 1.295.162.7.06 1.222.103 1.564.103l-.03.236c-.312-.014-.536 0-.67.045-.134.044-.208.162-.223.31-.015.132.015.324.09.574l1.652 5.986 2.457-4.895c.209-.398.313-.722.343-.958.03-.25-.045-.442-.209-.575-.163-.133-.431-.207-.789-.25l.03-.237c.432.074.893.133 1.37.177ZM71.835 9.14a.426.426 0 0 0-.358.178c-.089.118-.193.31-.297.59l-2.13 5.602c-.104.28-.164.501-.164.649 0 .147.045.265.15.354.103.088.297.191.565.31l-.09.22c-.342-.147-.818-.339-1.429-.575a25.573 25.573 0 0 0-1.474-.516l.089-.22c.283.088.492.132.626.132a.446.446 0 0 0 .357-.177c.09-.118.194-.31.298-.59l2.13-5.602c.104-.28.163-.502.163-.649a.435.435 0 0 0-.149-.354c-.104-.088-.298-.191-.566-.31l.09-.22c.312.132.789.324 1.444.574.61.236 1.102.398 1.46.502l-.09.22c-.268-.088-.476-.132-.625-.117ZM85.089 16.94a.578.578 0 0 0-.432.103c-.134.089-.298.266-.477.516l-4.318 5.794-.224-.162.581-9.317-3.827 5.13c-.179.25-.298.457-.358.62-.06.162-.03.309.045.456.074.148.253.31.506.517l-.149.191a21.535 21.535 0 0 0-.983-.767c-.387-.28-.7-.5-.938-.634l.15-.191c.237.162.431.25.58.265a.578.578 0 0 0 .432-.103c.134-.103.298-.265.476-.516l3.515-4.718c.179-.25.298-.442.342-.575a.436.436 0 0 0-.044-.383c-.075-.118-.224-.266-.462-.457l.15-.192c.193.177.49.413.893.693.297.221.55.398.789.53l-.477 7.815 3.098-4.158c.179-.25.313-.457.357-.62a.608.608 0 0 0-.044-.456c-.075-.148-.254-.325-.507-.516l.15-.192c.223.192.55.442.982.767.387.28.7.501.938.634l-.149.192c-.253-.148-.446-.251-.595-.266ZM90.078 23.59c.387-.28.79-.59 1.22-.974.373.56 1.028 1.49 1.967 2.801a175.978 175.978 0 0 0 2.01 2.743c-.506.295-.938.56-1.325.825-.328.236-.596.443-.79.605l-.163-.221c.476-.413.804-.752.997-1.003.194-.25.269-.516.254-.796-.015-.28-.194-.62-.477-1.032l-.387-.53-5.644 3.98c-.268.192-.462.369-.551.501a.52.52 0 0 0-.06.472c.045.162.179.398.372.693l-.193.147a25.383 25.383 0 0 0-1.013-1.46 33.781 33.781 0 0 0-1.072-1.43l.194-.147c.223.28.402.472.55.575a.526.526 0 0 0 .462.089c.164-.045.387-.163.655-.354l5.645-3.98-.388-.532c-.297-.413-.566-.663-.819-.781a1.084 1.084 0 0 0-.834-.03c-.297.104-.73.295-1.28.605l-.164-.221c.223-.118.491-.295.834-.546ZM92.937 44.053l-.239.074a17.05 17.05 0 0 0-.387-1.239 28.111 28.111 0 0 0-.536-1.46l.238-.073c.105.28.224.487.313.59a.34.34 0 0 0 .387.074c.134-.045.298-.148.492-.31l1.653-1.342-.938-2.757-1.385-.059c-.447-.03-.79 0-1.028.089-.238.088-.387.221-.447.413-.044.191-.015.472.09.81l-.239.074c-.119-.442-.268-.884-.417-1.327-.119-.339-.223-.619-.327-.84l.238-.074c.209.354.655.546 1.31.56l7.923.354.06.177-6.314 5.205c-.388.368-.537.707-.447 1.061Zm5.167-6.266-3.901-.162.878 2.595 3.023-2.433ZM94.024 55.332c.149-.059.223-.133.223-.236a.248.248 0 0 0-.044-.147c-.03-.044-.09-.133-.18-.25a3.48 3.48 0 0 1-.505-.87 2.675 2.675 0 0 1-.18-1.003c-.014-.826.15-1.534.477-2.138a3.34 3.34 0 0 1 1.475-1.386c.64-.324 1.414-.486 2.323-.501.938-.015 1.757.133 2.457.457s1.251.767 1.638 1.356a3.56 3.56 0 0 1 .596 1.99c0 .325-.03.62-.089.87-.06.251-.149.472-.254.664a5.037 5.037 0 0 1-.417.649c-.074.103-.119.191-.119.25 0 .148.253.25.745.295v.28c-.521-.03-1.46-.03-2.8 0v-.28a8.31 8.31 0 0 0 1.072-.25c.283-.089.522-.222.73-.384.283-.236.521-.545.685-.929.164-.383.238-.766.238-1.18a2.08 2.08 0 0 0-.551-1.385c-.357-.398-.863-.693-1.504-.914-.655-.207-1.4-.31-2.263-.295-.983.015-1.773.133-2.398.354-.625.221-1.072.545-1.37.973-.298.427-.432.973-.417 1.636.015.487.149.9.402 1.254.104.147.194.235.298.28.09.044.223.059.387.059l1.177-.015c.342 0 .58-.044.744-.103a.505.505 0 0 0 .313-.354c.06-.162.09-.428.09-.782h.238c-.015.399-.03.959-.015 1.71.015.561.03.989.06 1.254h-.239a.937.937 0 0 0-.104-.398c-.045-.074-.15-.133-.283-.162a2.787 2.787 0 0 0-.67-.03l-2.413.044v-.236c.134-.059.298-.088.447-.147ZM92.252 67.878a16.077 16.077 0 0 0-1.519-.383c.194-.516.477-1.386.879-2.624.476-1.475.819-2.595 1.027-3.347l.239.074c-.075.28-.105.486-.105.633.015.148.075.251.194.34.12.088.328.177.61.265l5.764 1.799c.298.088.506.132.655.132a.428.428 0 0 0 .358-.176c.089-.118.178-.31.282-.575l.239.073c-.268.752-.626 1.858-1.102 3.332-.358 1.12-.61 1.932-.73 2.418a12.167 12.167 0 0 0-1.355-.501 6.961 6.961 0 0 0-.73-.192l.09-.265c.52.103.923.147 1.19.147a.914.914 0 0 0 .671-.265c.179-.162.328-.457.462-.855l.297-.959c.09-.28.134-.486.12-.619a.455.455 0 0 0-.18-.339c-.118-.088-.312-.177-.61-.265l-2.74-.855-.238.766c-.12.384-.09.678.104.885.194.206.402.354.64.457.239.103.388.177.447.206l-.09.266a12.03 12.03 0 0 0-1.086-.384l-.551-.162c-.387-.118-.953-.28-1.668-.442l.09-.265c.059.014.252.044.58.117.328.06.61.03.834-.088.223-.118.372-.34.477-.649l.238-.766-2.8-.87c-.298-.089-.506-.133-.655-.133a.382.382 0 0 0-.343.177c-.09.118-.178.31-.268.59l-.268.84c-.149.487-.208.87-.149 1.15.045.295.194.53.447.737.253.192.64.413 1.162.649l-.09.265c-.178-.132-.461-.22-.819-.339ZM88.007 85.968a.466.466 0 0 0-.014-.398c-.06-.132-.209-.295-.432-.516l-4.379-4.143c-.223-.206-.402-.339-.536-.398a.48.48 0 0 0-.402 0c-.134.06-.298.192-.506.398l-.179-.162c.283-.25.64-.62 1.102-1.076.477-.501.834-.885 1.058-1.135l.178.162a2.701 2.701 0 0 0-.372.516.467.467 0 0 0 .015.398c.06.133.208.295.432.516l4.378 4.143c.223.206.402.339.536.398a.48.48 0 0 0 .402 0c.134-.06.298-.192.507-.398l.178.162c-.253.221-.625.59-1.102 1.091a22.25 22.25 0 0 0-1.042 1.135l-.179-.162c.179-.221.298-.398.357-.53ZM75.602 94.962a.536.536 0 0 0 .075-.428c-.03-.162-.134-.368-.298-.649l-3.694-6.206.239-.148 8.429 4.172-3.262-5.484c-.163-.265-.297-.457-.431-.56a.619.619 0 0 0-.447-.133c-.164.015-.387.103-.67.25l-.134-.206c.268-.118.625-.324 1.087-.59.417-.25.73-.442.953-.604l.119.206c-.238.148-.402.295-.477.428a.536.536 0 0 0-.074.428c.03.162.134.368.298.648l3.008 5.057c.149.266.283.442.402.531.12.088.238.133.387.103.134-.03.343-.103.596-.236l.12.207c-.24.118-.567.295-.999.545-.312.177-.58.354-.804.501L72.951 89.3l2.651 4.453c.164.265.298.457.432.56a.58.58 0 0 0 .447.133c.179-.015.402-.103.685-.25l.119.206c-.268.117-.625.324-1.087.59-.417.25-.73.441-.953.604l-.12-.207c.224-.162.388-.31.477-.427ZM67.412 96.893c.104.457.238.958.417 1.489-.67.118-1.787.354-3.366.678-1.578.34-2.68.59-3.336.752a16.516 16.516 0 0 0-.253-1.533c-.09-.398-.164-.723-.253-.959l.268-.058c.194.604.372 1.031.536 1.312.164.28.372.457.64.545.269.089.656.074 1.147-.03l.64-.132-1.459-6.708c-.074-.325-.149-.56-.253-.693-.104-.133-.224-.221-.402-.236-.179-.03-.447 0-.804.059l-.045-.236a26.647 26.647 0 0 0 1.757-.34c.79-.176 1.385-.309 1.757-.412l.045.236c-.357.088-.595.177-.744.265a.547.547 0 0 0-.269.384c-.03.162-.014.413.06.737l1.46 6.708.64-.133c.491-.103.849-.25 1.057-.442.209-.192.328-.442.358-.752.03-.31.014-.781-.06-1.4l.268-.06c.045.237.104.56.194.959ZM47.65 92.75c.044-.457.06-.973.06-1.548.55.074 1.473.162 2.784.28 1.549.133 2.725.236 3.53.28l-.016.236c-.297-.014-.506 0-.64.044a.459.459 0 0 0-.298.251c-.06.133-.104.354-.134.649l-.536 5.97a2.29 2.29 0 0 0 .015.664c.03.148.12.251.253.31.134.059.343.118.626.147l-.015.236c-.79-.088-1.966-.206-3.515-.339a94.5 94.5 0 0 0-2.546-.192 11.2 11.2 0 0 0 .208-1.415c.03-.31.045-.56.03-.752l.283.03c.015.53.045.914.119 1.18.06.265.194.456.402.589.194.133.521.221.938.25l1.013.089c.298.03.506.015.64-.015a.422.422 0 0 0 .298-.25c.06-.133.104-.354.134-.649l.253-2.83-.804-.075c-.402-.029-.685.06-.849.295-.149.236-.268.472-.312.723-.06.25-.09.413-.105.486l-.283-.03c.06-.397.105-.766.15-1.134l.044-.575c.03-.413.06-.973.09-1.71l.282.029c0 .059.015.25.015.59.015.339.09.604.268.781.164.192.417.295.745.324l.804.074.253-2.89c.03-.294.015-.516-.015-.663a.42.42 0 0 0-.253-.295c-.134-.059-.342-.103-.625-.133l-.894-.073c-.506-.045-.893-.015-1.176.103-.268.103-.477.31-.626.59-.149.28-.268.707-.387 1.267l-.283-.029c0-.221.03-.516.075-.87ZM35.93 87.28c.223-.044.476 0 .744.118.313.133.521.325.64.575.12.266.135.634.06 1.12l-.223 1.21c-.075.427-.12.752-.134 1.002-.015.236.044.457.149.65.104.19.298.338.58.456l1.073.442 1.087-2.565c.119-.28.178-.486.193-.634.015-.147-.044-.265-.148-.368-.105-.104-.283-.207-.551-.325l.089-.22c.342.161.804.368 1.415.618.64.266 1.131.457 1.459.56l-.09.222a2.791 2.791 0 0 0-.625-.163c-.149 0-.268.045-.357.163-.104.103-.209.295-.328.575l-2.338 5.528c-.119.28-.179.487-.194.634-.014.148.045.266.15.369.104.103.282.206.55.34l-.089.22c-.313-.147-.76-.354-1.355-.604-.298-.118-.61-.25-.968-.398-.358-.148-.596-.236-.73-.295-.58-.25-1.042-.53-1.385-.87-.342-.34-.536-.693-.625-1.076a1.718 1.718 0 0 1 .119-1.12c.119-.296.313-.561.58-.797.269-.236.611-.413 1.028-.501.417-.089.923-.074 1.474.059l-.133-.074c-.313-.192-.551-.383-.7-.59a1.34 1.34 0 0 1-.283-.648c-.045-.236-.03-.531.03-.885l.208-1.253c.045-.25.074-.442.074-.59a.798.798 0 0 0-.06-.354.361.361 0 0 0-.223-.191.469.469 0 0 0-.342-.03c-.104.03-.253.103-.447.206l-.119-.191c.268-.162.521-.28.745-.325Zm.744 5.25c-.357.043-.64.176-.864.397-.223.221-.416.516-.58.9-.253.604-.313 1.135-.15 1.562.165.428.567.782 1.237 1.062.238.103.417.147.566.133a.467.467 0 0 0 .357-.177c.104-.118.209-.31.313-.575l1.161-2.743-.76-.31c-.49-.206-.922-.294-1.28-.25ZM24.313 89.285a.453.453 0 0 0 .388-.059c.119-.073.282-.236.476-.471l3.738-4.718c.194-.236.313-.428.358-.56a.436.436 0 0 0-.045-.384c-.075-.118-.224-.28-.447-.472l.149-.191c.283.25.67.575 1.191.973a26.5 26.5 0 0 0 1.251.929l-.149.191c-.238-.177-.431-.28-.566-.31a.408.408 0 0 0-.387.06c-.119.073-.283.236-.476.471l-3.738 4.718c-.194.236-.313.428-.358.56a.436.436 0 0 0 .045.384c.075.118.223.28.447.472l-.15.191a44.552 44.552 0 0 0-1.205-.987 36.228 36.228 0 0 0-1.236-.915l.148-.191c.254.162.432.265.566.31ZM14.693 78.789c-.06-.664.09-1.327.432-1.961.357-.649.894-1.224 1.638-1.77.73-.516 1.46-.855 2.22-.987.759-.133 1.459-.089 2.114.162.655.25 1.206.678 1.638 1.283.462.619.715 1.267.774 1.93.06.664-.089 1.328-.431 1.962-.358.648-.894 1.224-1.639 1.769-.73.516-1.459.855-2.218.988-.745.132-1.46.088-2.115-.162a3.608 3.608 0 0 1-1.638-1.268c-.462-.634-.715-1.283-.775-1.946Zm2.234 2.624c.521.103 1.117.059 1.772-.147.655-.207 1.31-.546 1.996-1.047.685-.487 1.221-1.018 1.593-1.578.387-.56.596-1.12.626-1.651a2.06 2.06 0 0 0-.373-1.4 1.975 1.975 0 0 0-1.25-.782c-.522-.103-1.117-.06-1.773.147-.655.207-1.31.546-1.995 1.032-.685.487-1.221 1.018-1.594 1.593-.387.56-.595 1.105-.64 1.65-.045.532.09 1.003.372 1.401.313.413.73.679 1.266.782ZM15.84 61.038c.178.132.313.353.402.648.104.31.09.605-.03.855-.119.266-.402.516-.834.767l-1.087.604a9.638 9.638 0 0 0-.849.546 1.156 1.156 0 0 0-.402.53c-.074.207-.074.443.015.738l.343 1.106 2.68-.826c.298-.088.492-.177.61-.265a.473.473 0 0 0 .194-.34c.015-.132-.03-.353-.104-.633l.238-.074c.09.354.224.855.432 1.474.209.664.372 1.15.492 1.46l-.239.073c-.104-.28-.193-.471-.283-.575a.468.468 0 0 0-.357-.177c-.149 0-.372.03-.655.133l-5.778 1.77c-.298.088-.492.176-.611.265a.473.473 0 0 0-.194.339c-.015.147.03.354.105.634l-.239.074a20.661 20.661 0 0 0-.402-1.416c-.09-.295-.208-.634-.327-.988-.12-.353-.209-.604-.254-.737-.193-.604-.253-1.135-.208-1.607.045-.471.194-.855.432-1.165a1.81 1.81 0 0 1 .938-.633 2.39 2.39 0 0 1 .983-.074c.357.044.7.192 1.057.457.358.265.655.649.909 1.165l-.015-.148c-.045-.368-.06-.663 0-.914.06-.25.164-.457.313-.634.163-.177.402-.368.714-.545l1.102-.65c.224-.117.403-.235.507-.323a.96.96 0 0 0 .238-.266.4.4 0 0 0 .015-.295.503.503 0 0 0-.194-.28 2.145 2.145 0 0 0-.446-.206l.074-.221c.298.103.551.22.715.354Zm-3.56 3.95a1.459 1.459 0 0 0-.863-.397c-.313-.03-.67.014-1.072.147-.64.192-1.073.501-1.31.9-.24.397-.24.943-.03 1.606.074.236.163.413.252.516.09.104.224.163.373.163s.372-.045.64-.118l2.86-.885-.239-.781c-.149-.531-.357-.914-.61-1.15ZM14.693 47.046c.566-.25.909-.722 1.057-1.43.045-.266.045-.53-.03-.782a1.44 1.44 0 0 0-.416-.663c-.209-.192-.492-.324-.864-.383a1.544 1.544 0 0 0-.864.073 2.663 2.663 0 0 0-.79.487c-.252.221-.55.516-.878.885-.372.412-.7.752-.983.987-.283.251-.595.428-.938.56-.342.133-.73.148-1.161.074-.447-.088-.82-.25-1.088-.516a1.967 1.967 0 0 1-.55-.943 2.78 2.78 0 0 1-.015-1.165c.044-.25.104-.442.178-.62a1.52 1.52 0 0 1 .239-.412c.089-.103.178-.221.297-.34.15-.161.224-.28.254-.368.014-.073-.015-.132-.09-.191-.074-.06-.208-.104-.387-.163l.045-.265c.461.118 1.265.295 2.442.516l-.045.266a3.564 3.564 0 0 0-1.191.058c-.372.074-.7.236-.968.487-.268.236-.447.575-.521.988-.06.28-.045.53.03.781.074.25.208.443.387.605.193.162.417.265.685.324.432.074.804.015 1.117-.192a4.84 4.84 0 0 0 .893-.781c.283-.31.462-.516.566-.62.417-.442.76-.78 1.043-1.031.283-.25.595-.428.938-.546.342-.118.715-.133 1.117-.059.491.089.893.28 1.191.56.298.295.491.634.596 1.047.104.413.104.855.015 1.327-.075.383-.164.678-.298.914a2.78 2.78 0 0 1-.462.634c-.149.162-.223.28-.253.369-.015.074.015.133.09.191.074.06.208.118.386.163l-.044.265c-.432-.118-1.385-.31-2.86-.575l.045-.265c.834.073 1.52 0 2.085-.251ZM11.745 34.617a13.19 13.19 0 0 0-1.43-.633c.327-.575.879-1.578 1.623-3.008.745-1.415 1.266-2.418 1.549-3.022.491.31.938.575 1.34.781.358.192.67.324.909.428l-.134.25c-.596-.236-1.043-.383-1.356-.427-.312-.06-.595 0-.834.147-.238.148-.476.442-.7.885l-.297.59 6.15 3.17c.298.161.536.235.7.25a.57.57 0 0 0 .447-.148c.134-.118.283-.339.462-.648l.223.118c-.223.368-.506.884-.864 1.562-.372.708-.64 1.254-.804 1.593l-.223-.118c.148-.325.253-.575.268-.737a.516.516 0 0 0-.134-.457c-.12-.133-.313-.266-.611-.428l-6.15-3.185-.313.575c-.239.443-.343.797-.328 1.077.015.28.134.53.358.752.223.22.595.516 1.131.855l-.134.25c-.193-.118-.491-.28-.848-.471ZM22.258 17.677c.253-.25.462-.486.61-.663l.18.177c-.09.132-.134.324-.12.545.015.221.075.53.194.9l1.355 3.995 1.579 1.548c.223.206.387.354.52.413a.48.48 0 0 0 .403 0c.134-.06.298-.192.521-.384l.179.177c-.283.251-.655.605-1.117 1.062-.491.486-.849.87-1.072 1.12l-.179-.177c.194-.22.328-.383.387-.516a.42.42 0 0 0-.015-.398c-.06-.132-.208-.31-.417-.516l-1.31-1.282-4.974-1.445c-.298-.089-.521-.118-.67-.103a.515.515 0 0 0-.328.132l-.179-.177c.239-.206.507-.442.775-.722.55-.56.953-.958 1.176-1.224l.179.177c-.402.398-.491.708-.268.929.09.088.208.147.387.206l4.185 1.283-1.102-3.258c-.164-.472-.328-.796-.506-.959-.164-.162-.343-.206-.537-.147-.193.059-.417.206-.685.457l-.178-.177c.357-.324.685-.648 1.027-.973ZM31.268 11.736a.44.44 0 0 0-.104.383c.03.148.104.354.253.62l2.874 5.277c.15.266.269.443.388.546a.442.442 0 0 0 .372.118c.134-.015.343-.103.596-.236l.789-.428c.447-.235.76-.486.923-.737.164-.25.224-.53.179-.87-.045-.339-.179-.766-.417-1.326l.253-.133c.104.236.253.53.447.884.223.399.491.84.819 1.327a64.35 64.35 0 0 0-2.472 1.283c-1.37.737-2.413 1.297-3.098 1.696l-.119-.207c.253-.147.432-.28.521-.383a.439.439 0 0 0 .105-.384 2.22 2.22 0 0 0-.253-.619L30.42 13.27c-.15-.265-.269-.442-.388-.545a.441.441 0 0 0-.372-.118c-.149.014-.343.088-.61.22l-.105-.22c.313-.133.775-.369 1.385-.708.581-.31 1.028-.56 1.34-.752l.12.206c-.254.148-.417.28-.522.384ZM49.407 12.68c.09.441.223.943.387 1.503-.55.088-1.46.25-2.74.501-1.534.295-2.68.531-3.47.708l-.045-.236c.283-.074.492-.133.611-.221a.437.437 0 0 0 .209-.325c.014-.147 0-.368-.06-.663l-1.162-5.882c-.06-.295-.119-.502-.208-.634-.09-.133-.179-.207-.328-.222-.134-.03-.357-.014-.64.03l-.045-.236c.79-.133 1.951-.34 3.47-.634 1.177-.236 2.01-.398 2.487-.516.045.53.12 1.003.194 1.415.06.31.119.546.178.723l-.268.059c-.163-.501-.312-.87-.446-1.106a.972.972 0 0 0-.551-.457c-.239-.074-.551-.074-.983.015l-.998.191c-.283.06-.492.118-.61.192a.47.47 0 0 0-.224.324c-.015.148 0 .369.06.664l.55 2.801.79-.162c.402-.074.64-.25.73-.516.089-.265.119-.516.104-.767-.015-.25-.03-.413-.03-.486l.268-.06c.045.399.104.767.179 1.121l.119.56c.074.398.208.959.402 1.666l-.268.06c-.015-.06-.075-.236-.179-.56-.104-.325-.253-.546-.476-.679-.224-.133-.477-.162-.805-.103l-.789.147.566 2.846c.06.295.12.501.194.634a.475.475 0 0 0 .327.22c.134.015.358 0 .64-.058l.88-.177c.49-.103.863-.236 1.101-.413.239-.177.373-.427.432-.737.06-.31.06-.752.015-1.327l.268-.059c.045.221.09.501.164.855Z" fill="#B1B1B1" style="mix-blend-mode:multiply"/><g style="mix-blend-mode:multiply"><path d="M39.37 68.984a17.325 17.325 0 0 1-1.803-3.022 20.528 20.528 0 0 1-1.25-3.377c-.686-5.056-.7-9.966-.06-14.728a86.858 86.858 0 0 1 3.112-14.08c.239-.516.76-.767 1.564-.767s1.593.177 2.398.531c.804.354 1.46.826 1.98 1.415.522.59.64 1.21.358 1.843-.447.944-.879 2.227-1.31 3.819a83.857 83.857 0 0 0-1.252 5.307A95.373 95.373 0 0 0 42.065 52a86.513 86.513 0 0 0-.655 6.074c-.134 1.931-.164 3.686-.09 5.249.075 1.562.313 2.8.715 3.7a80.497 80.497 0 0 0 5.153-7.74 133.901 133.901 0 0 0 4.393-8.124c1.37-2.742 2.68-5.514 3.917-8.33 1.236-2.8 2.457-5.573 3.648-8.3a107.594 107.594 0 0 0 1.772-4.379c.581-1.548 1.34-2.86 2.309-3.966.402-.354.715-.472.923-.354.223.118.372.34.447.679.074.339.119.692.119 1.061v.855A116.562 116.562 0 0 0 64 33.821a21.083 21.083 0 0 1-1.25 5.16c-1.043 2.61-2.1 5.19-3.203 7.77a140.656 140.656 0 0 1-3.53 7.593 95.666 95.666 0 0 1-4.065 7.254 63.815 63.815 0 0 1-4.765 6.723c-1.355 1.695-2.71 2.594-4.036 2.698-1.385.117-2.621-.575-3.783-2.035Z" fill="#B1B1B1"/><path d="M39.37 68.984a17.325 17.325 0 0 1-1.803-3.022 20.528 20.528 0 0 1-1.25-3.377c-.686-5.056-.7-9.966-.06-14.728a86.858 86.858 0 0 1 3.112-14.08c.239-.516.76-.767 1.564-.767s1.593.177 2.398.531c.804.354 1.46.826 1.98 1.415.522.59.64 1.21.358 1.843-.447.944-.879 2.227-1.31 3.819a83.857 83.857 0 0 0-1.252 5.307A95.373 95.373 0 0 0 42.065 52a86.513 86.513 0 0 0-.655 6.074c-.134 1.931-.164 3.686-.09 5.249.075 1.562.313 2.8.715 3.7a80.497 80.497 0 0 0 5.153-7.74 133.901 133.901 0 0 0 4.393-8.124c1.37-2.742 2.68-5.514 3.917-8.33 1.236-2.8 2.457-5.573 3.648-8.3a107.594 107.594 0 0 0 1.772-4.379c.581-1.548 1.34-2.86 2.309-3.966.402-.354.715-.472.923-.354.223.118.372.34.447.679.074.339.119.692.119 1.061v.855A116.562 116.562 0 0 0 64 33.821a21.083 21.083 0 0 1-1.25 5.16c-1.043 2.61-2.1 5.19-3.203 7.77a140.656 140.656 0 0 1-3.53 7.593 95.666 95.666 0 0 1-4.065 7.254 63.815 63.815 0 0 1-4.765 6.723c-1.355 1.695-2.71 2.594-4.036 2.698-1.385.117-2.621-.575-3.783-2.035Z" stroke="#fff" stroke-miterlimit="10"/></g><g style="mix-blend-mode:multiply"><path d="M64.031 62.29a113.755 113.755 0 0 1-2.368-3.376 6.619 6.619 0 0 1-1.161-3.789c0-1.533.447-2.993 1.34-4.364.894-1.356 1.921-2.462 3.083-3.288a8.16 8.16 0 0 1 1.46-.766c.49-.192 1.027-.177 1.593.059.238.118.491.206.744.265.253.06.492.133.685.206.194.074.417.192.656.354.238.163.357.369.357.65 0 1.105.03 2.004.09 2.697.059.693.148 1.283.267 1.784.12.501.239.929.358 1.297.119.384.238.782.357 1.21.075.398.06.736-.06 1.002-.118.28-.416.31-.893.118-.879-.31-1.534-.944-1.95-1.902-.418-.958-.73-1.813-.924-2.61a7.637 7.637 0 0 0-.298-.825 8.996 8.996 0 0 1-.298-.826c-.313-.074-.7.03-1.132.325a4.33 4.33 0 0 0-1.161 1.208 4.154 4.154 0 0 0-.655 1.784c-.105.679.03 1.342.387 2.02.163.236.387.531.685.855.298.34.596.679.893 1.032.298.354.596.708.894 1.032.298.325.55.605.744.797.239.236.402.368.477.383.075.015.283-.03.596-.148a24.518 24.518 0 0 1 1.831-.766c.82-.31 1.683-.634 2.577-.944a38.71 38.71 0 0 1 2.576-.796c.82-.221 1.445-.324 1.891-.324.283 0 .477.103.596.295.12.118.104.28-.06.471a4.01 4.01 0 0 1-.625.59 9.434 9.434 0 0 1-.804.53c-.283.163-.462.252-.536.296-.685.398-1.534.84-2.576 1.341a25.762 25.762 0 0 0-2.696 1.445c-.075.074-.223.162-.447.236a2.336 2.336 0 0 0-.506.236c.476 1.061.819 1.99 1.013 2.757.193.767.268 1.504.208 2.226a9.68 9.68 0 0 1-.447 2.168c-.238.737-.566 1.577-.953 2.52a53.226 53.226 0 0 1-1.713 2.61 14.22 14.22 0 0 1-1.95 2.256 8.64 8.64 0 0 1-2.338 1.592c-.834.398-1.758.59-2.755.59a6.526 6.526 0 0 1-1.624-.206c-.521-.133-.953-.428-1.31-.856-.924-.987-1.43-2.064-1.55-3.228a9.422 9.422 0 0 1 .299-3.465c.238-.708.536-1.356.893-1.96.879-1.505 1.847-2.773 2.904-3.82a53.174 53.174 0 0 1 3.336-2.978Zm2.04 2.669a73.05 73.05 0 0 0-1.802 1.872c-.76.811-1.459 1.696-2.13 2.64a17.586 17.586 0 0 0-1.608 2.815c-.416.93-.52 1.725-.327 2.404.804-.354 1.623-.944 2.457-1.755a15.943 15.943 0 0 0 2.219-2.668c.64-.974 1.087-1.932 1.34-2.875.254-.959.209-1.77-.149-2.433Z" fill="#B1B1B1"/><path d="M64.031 62.29a113.755 113.755 0 0 1-2.368-3.376 6.619 6.619 0 0 1-1.161-3.789c0-1.533.447-2.993 1.34-4.364.894-1.356 1.921-2.462 3.083-3.288a8.16 8.16 0 0 1 1.46-.766c.49-.192 1.027-.177 1.593.059.238.118.491.206.744.265.253.06.492.133.685.206.194.074.417.192.656.354.238.163.357.369.357.65 0 1.105.03 2.004.09 2.697.059.693.148 1.283.267 1.784.12.501.239.929.358 1.297.119.384.238.782.357 1.21.075.398.06.736-.06 1.002-.118.28-.416.31-.893.118-.879-.31-1.534-.944-1.95-1.902-.418-.958-.73-1.813-.924-2.61a7.637 7.637 0 0 0-.298-.825 8.996 8.996 0 0 1-.298-.826c-.313-.074-.7.03-1.132.325a4.33 4.33 0 0 0-1.161 1.208 4.154 4.154 0 0 0-.655 1.784c-.105.679.03 1.342.387 2.02.163.236.387.531.685.855.298.34.596.679.893 1.032.298.354.596.708.894 1.032.298.325.55.605.744.797.239.236.402.368.477.383.075.015.283-.03.596-.148a24.518 24.518 0 0 1 1.831-.766c.82-.31 1.683-.634 2.577-.944a38.71 38.71 0 0 1 2.576-.796c.82-.221 1.445-.324 1.891-.324.283 0 .477.103.596.295.12.118.104.28-.06.471a4.01 4.01 0 0 1-.625.59 9.434 9.434 0 0 1-.804.53c-.283.163-.462.252-.536.296-.685.398-1.534.84-2.576 1.341a25.762 25.762 0 0 0-2.696 1.445c-.075.074-.223.162-.447.236a2.336 2.336 0 0 0-.506.236c.476 1.061.819 1.99 1.013 2.757.193.767.268 1.504.208 2.226a9.68 9.68 0 0 1-.447 2.168c-.238.737-.566 1.577-.953 2.52a53.226 53.226 0 0 1-1.713 2.61 14.22 14.22 0 0 1-1.95 2.256 8.64 8.64 0 0 1-2.338 1.592c-.834.398-1.758.59-2.755.59a6.526 6.526 0 0 1-1.624-.206c-.521-.133-.953-.428-1.31-.856-.924-.987-1.43-2.064-1.55-3.228a9.422 9.422 0 0 1 .299-3.465c.238-.708.536-1.356.893-1.96.879-1.505 1.847-2.773 2.904-3.82a53.174 53.174 0 0 1 3.336-2.978Zm2.04 2.669a73.05 73.05 0 0 0-1.802 1.872c-.76.811-1.459 1.696-2.13 2.64a17.586 17.586 0 0 0-1.608 2.815c-.416.93-.52 1.725-.327 2.404.804-.354 1.623-.944 2.457-1.755a15.943 15.943 0 0 0 2.219-2.668c.64-.974 1.087-1.932 1.34-2.875.254-.959.209-1.77-.149-2.433Z" stroke="#fff" stroke-miterlimit="10"/></g><path d="M54.321 86.293c-18.63 0-33.79-15.009-33.79-33.453 0-18.444 15.16-33.452 33.79-33.452s33.79 15.008 33.79 33.452-15.16 33.453-33.79 33.453Zm0-65.431c-17.811 0-32.301 14.345-32.301 31.978 0 17.633 14.49 31.978 32.301 31.978S86.622 70.474 86.622 52.84c0-17.633-14.49-31.978-32.3-31.978Z" fill="#B1B1B1" style="mix-blend-mode:multiply"/></g><defs><clipPath id="a"><path fill="#fff" d="M0 0h108v106H0z"/></clipPath></defs>
        </g>
    </symbol>

    <symbol id="logo-3" viewBox="0 0 172 46">
        <g>
            <g clip-path="url(#a)"><path d="M37.213 45.166H9.233c-4.597 0-8.323-3.689-8.323-8.24v-27.7c0-4.552 3.726-8.24 8.324-8.24h27.979c4.597 0 8.324 3.688 8.324 8.24v27.7c0 4.551-3.727 8.24-8.324 8.24Z" fill="#B1B1B1"/><path d="M31.263 23.482c.796.988 1.2 2.139 1.2 3.44 0 1.912-.644 3.413-1.933 4.476-1.288 1.063-3.132 1.613-5.532 1.613H14.513V10.69h10.232c2.299 0 4.067.5 5.318 1.489 1.25.987 1.882 2.4 1.882 4.226 0 1.35-.366 2.464-1.086 3.364-.72.9-1.668 1.476-2.842 1.751 1.377.325 2.45.975 3.246 1.963Zm-11.305-3.664h3.574c1.895 0 2.843-.8 2.843-2.4 0-1.601-.973-2.402-2.906-2.402h-3.511v4.802Zm6.922 6.353c0-.8-.265-1.426-.796-1.876-.53-.45-1.288-.675-2.261-.675H19.97v5.014h3.89c2.01-.012 3.02-.825 3.02-2.463Z" fill="#fff"/><path d="m71.393 33.011-4.875-8.428H65.28v8.428h-5.457V10.69h9.31c1.78 0 3.296.3 4.521.913 1.238.613 2.16 1.451 2.78 2.514.618 1.063.921 2.276.921 3.651 0 1.626-.454 3.002-1.351 4.14-.91 1.138-2.21 1.913-3.941 2.338l5.355 8.779h-6.025v-.013ZM65.28 20.894h3.372c1.087 0 1.882-.238 2.388-.713.505-.475.77-1.175.77-2.1 0-.889-.265-1.577-.783-2.09-.518-.5-1.314-.762-2.375-.762H65.28v5.665ZM102.038 28.947h-8.45l-1.403 4.076H86.45l8.261-22.159h6.278l8.261 22.16h-5.798l-1.414-4.077Zm-1.402-4.114-2.805-8.204-2.842 8.204h5.647ZM139.351 33.011h-5.457l-9.12-13.705V33.01h-5.457V10.69h5.457l9.12 13.831V10.69h5.457V33.01ZM169.944 27.634c-.947 1.688-2.311 3.014-4.08 3.964-1.781.95-3.865 1.425-6.265 1.425h-8.513V10.702h8.513c2.425 0 4.522.462 6.278 1.388 1.768.925 3.12 2.226 4.067 3.914.948 1.688 1.415 3.614 1.415 5.815 0 2.176-.48 4.114-1.415 5.815Zm-5.873-1.126c1.174-1.113 1.768-2.688 1.768-4.702 0-2.026-.594-3.589-1.768-4.702-1.175-1.113-2.83-1.675-4.964-1.675h-2.577v12.755h2.577c2.134 0 3.789-.55 4.964-1.676Z" fill="#B1B1B1"/></g><defs><clipPath id="a"><path fill="#fff" d="M0 0h172v46H0z"/></clipPath></defs>
        </g>
    </symbol>

    <symbol id="logo-4" viewBox="0 0 152 47">
        <g>
            <g clip-path="url(#a)" fill="#B1B1B1"><path d="m22.025 10.071 1.117-.236c.283 0 .52.06.685.177.164.118.253.236.253.34 0 .103-.03.265-.074.457a823.05 823.05 0 0 0-1.237 5.897c-.774 3.73-1.34 6.516-1.697 8.345 1.727-2.33 3.753-5.19 6.06-8.596 2.31-3.405 3.664-5.661 4.051-6.782.12-.354.284-.619.477-.81.194-.192.372-.31.521-.34a3.71 3.71 0 0 1 .7-.059c.313 0 .685.074 1.117.207.432.132.655.354.655.678 0 .59-.893 2.315-2.665 5.145-1.773 2.831-3.813 5.839-6.106 9.023-2.294 3.185-4.2 5.706-5.734 7.564-.268.324-.61.5-.997.5-.388 0-.805-.073-1.236-.206-.432-.132-.656-.368-.656-.722 0-1.106.983-6.443 2.949-15.982-1.683 2.153-3.723 5.16-6.12 9.009-2.503 3.98-3.917 6.457-4.245 7.4-.179.576-.387.915-.626 1.003a1.266 1.266 0 0 1-.52.103l-1.207.133a1.17 1.17 0 0 1-.655-.192c-.194-.132-.298-.265-.298-.412 0-.398.566-1.607 1.683-3.613 1.117-2.005 2.442-4.187 3.946-6.546a124.528 124.528 0 0 1 4.706-6.87c1.638-2.226 2.904-3.73 3.798-4.482a.895.895 0 0 1 .625-.236l.73.103ZM39.925 20.067c.774 0 1.162.266 1.162.782 0 .28-.06.486-.194.619s-.417.56-.849 1.312c-.432.737-.908 1.68-1.43 2.846-.52 1.15-.863 2.137-1.012 2.948a1.56 1.56 0 0 0-.045.428c0 .56.15.826.462.826.313 0 .67-.148 1.087-.428a7.73 7.73 0 0 0 1.117-.929c.328-.324.64-.663.953-1.002.313-.34.491-.546.551-.59a.446.446 0 0 1 .268-.074c.194 0 .313.148.358.442.044.295.059.59.059.915 0 .324-.03.53-.09.648-.297.575-.938 1.268-1.95 2.079-.998.81-1.921 1.209-2.74 1.209-.82 0-1.43-.25-1.802-.737-.373-.487-.581-1.047-.581-1.637 0-.604.104-1.12.313-1.577a13.532 13.532 0 0 1-2.904 2.772c-1.102.751-1.981 1.135-2.681 1.135s-1.25-.207-1.698-.62c-.566-.515-.834-1.223-.834-2.137 0-.914.209-1.828.626-2.757.417-.914.953-1.77 1.623-2.521.67-.767 1.415-1.46 2.219-2.08 1.683-1.311 3.247-1.96 4.676-1.96.551 0 .998.088 1.34.265.343.177.566.413.656.678.238-.368.447-.59.625-.692.134-.118.387-.163.715-.163ZM37.9 21.748c-1.743 0-3.545.958-5.406 2.875a13.662 13.662 0 0 0-1.832 2.462c-.566.959-.834 1.607-.834 1.961 0 .354.104.53.313.53.283 0 1.072-.56 2.383-1.665 1.31-1.106 2.174-1.931 2.59-2.462.477-.59 1.4-1.828 2.786-3.7Z"/><path d="m51.511 12.076.626.148c.09 0 .178.044.238.132a.396.396 0 0 1 .104.251c0 .074-.104.295-.327.649-.224.354-.462.752-.76 1.194-.298.442-.447.693-.462.737.79-.059 1.356-.088 1.683-.088.328 0 .551.03.685.073.12.045.268.177.417.384.164.206.298.368.432.471.134.104.194.266.194.472 0 .207-.134.398-.387.531a2.052 2.052 0 0 1-.834.265c-2.368.236-3.664.354-3.902.369-.82 1.253-1.98 3.2-3.455 5.838-1.474 2.64-2.264 4.305-2.353 4.969a5.13 5.13 0 0 0-.06.737c0 .398.209.59.626.59.417 0 .879-.162 1.385-.472.506-.324.983-.663 1.4-1.032 1.146-1.003 1.757-1.519 1.831-1.519.269 0 .403.457.403 1.357 0 .486-.224.928-.685 1.327-1.028.87-1.892 1.533-2.592 1.975-.7.442-1.4.664-2.114.664a2.04 2.04 0 0 1-.432-.045c-.82-.147-1.415-.442-1.787-.884-.388-.442-.566-1.032-.566-1.77 0-.736.223-1.65.67-2.712a33.48 33.48 0 0 1 1.668-3.391 118.066 118.066 0 0 1 3.291-5.5l-.58.074c-1.177.133-1.862.192-2.056.192h-.134c-.298 0-.58-.059-.849-.177-.268-.118-.417-.265-.417-.428 0-.176.075-.339.224-.5.148-.163.238-.296.268-.384.074-.221.342-.472.804-.737.462-.266.804-.413 1.042-.428.239-.014.462-.03.685-.044.224-.015.462-.015.73-.03.268-.014.477-.014.626-.029l1.37-.059c.848-1.268 1.444-2.094 1.757-2.447.328-.369.506-.56.55-.59.046-.03.15-.06.314-.06l.73-.073Z"/><path d="M60.67 26.805c.194 0 .313.147.357.442.045.295.06.59.06.914 0 .325-.03.531-.09.649-.297.56-.938 1.253-1.935 2.064-.998.81-1.951 1.224-2.845 1.224a2.664 2.664 0 0 1-1.534-.487c-.461-.324-.7-.9-.7-1.71 0-.81.224-1.622.656-2.403-2.532 3.14-4.498 4.703-5.942 4.703-.566 0-1.028-.207-1.385-.605-.358-.398-.522-.81-.522-1.253 0-.427.06-.87.18-1.327.118-.457.252-.87.386-1.238.134-.369.343-.81.61-1.342.269-.53.477-.914.597-1.164.119-.251.342-.605.64-1.091.298-.487.67-1.15 1.147-1.976.476-.826.863-1.445 1.176-1.843.313-.398.61-.604.909-.604.297 0 .55.117.774.353.223.236.342.443.342.59 0 .148-.342.826-1.027 2.035-2.01 3.612-3.023 5.705-3.023 6.31 0 .147.06.221.164.221.491 0 1.712-1.047 3.648-3.14 1.936-2.094 3.068-3.435 3.38-4.025.314-.59.596-1.091.894-1.49.283-.397.507-.648.655-.736.432-.28.998-.428 1.698-.457.12 0 .194 0 .253.014.06.015.134.103.209.25.074.148.12.281.12.384-.09.28-.492 1.032-1.222 2.256-.715 1.224-1.117 1.916-1.191 2.064-1.207 2.462-1.803 4.07-1.803 4.806 0 .428.164.634.492.634.596-.074 1.31-.545 2.145-1.4.312-.31.61-.634.908-.959.298-.324.491-.516.55-.56a.361.361 0 0 1 .269-.103Z"/><path d="M65.093 23.311c2.398-2.698 4.453-4.054 6.136-4.054.417 0 .76.117 1.027.368.268.25.402.56.402.959 0 .398-.283 1.046-.849 1.975a31.82 31.82 0 0 1-1.563 2.33c-.253.324-.536.486-.864.486-.313 0-.566-.118-.745-.354a1.297 1.297 0 0 1-.268-.81c0-.694.373-1.49 1.132-2.36l-.03-.03c-.342.03-1.161.694-2.502 1.962a98.573 98.573 0 0 0-3.395 3.435 53.367 53.367 0 0 0-3.038 3.7c-.313.428-.58.65-.804.65-.224 0-.507-.074-.864-.207s-.58-.236-.655-.295c-.075-.059-.12-.162-.12-.31 0-.132.045-.31.12-.486.074-.192.238-.457.447-.796.208-.34.55-.9.997-1.666.447-.767 1.132-1.932 2.07-3.48.939-1.548 1.49-2.491 1.683-2.816.387-.663.7-1.15.953-1.445.462-.575 1.236-.855 2.323-.855.239 0 .373.148.373.457 0 .472-.447 1.372-1.326 2.669l-.64.973ZM81.52 20.244c0 .664-.269 1.253-.82 1.755-.55.5-1.161.752-1.861.752-.224 0-.373-.06-.447-.163-.075-.103-.104-.25-.104-.413 0-.162.015-.339.06-.5-.373.117-.775.309-1.222.56-.447.25-.998.619-1.653 1.12-.655.501-.983.855-.983 1.106 0 .074.12.118.358.118s.61-.089 1.102-.25c.491-.163.848-.252 1.042-.252.194 0 .328.015.387.03.134.074.268.221.432.457.149.236.223.427.223.56 0 .133-.134.31-.402.53a2.956 2.956 0 0 1-.893.502c-.343.118-.566.207-.67.266-2.145 1.194-3.217 2.005-3.217 2.447 0 .781.67 1.18 2.025 1.18.864 0 1.743-.266 2.607-.811a18.351 18.351 0 0 0 2.01-1.416c.596-.472.968-.766 1.132-.884.164-.118.283-.163.357-.163.268 0 .402.295.402.885 0 .59-.03.973-.104 1.15-.075.192-.268.413-.61.693-2.175 1.754-4.245 2.639-6.18 2.639-1.043 0-1.862-.147-2.488-.428-1.147-.516-1.713-1.297-1.713-2.358 0-1.386.968-2.448 2.92-3.156-.388-.177-.64-.383-.745-.663-.12-.265-.164-.693-.164-1.283s.283-1.209.834-1.872a6.466 6.466 0 0 1 2.04-1.622c1.787-.958 3.396-1.43 4.796-1.43.342 0 .67.074 1.027.236.358.162.521.383.521.678ZM116.278 9.983h.193c.06 0 .104 0 .119.015.015.014.03.014.06.03.03 0 .045.014.074.043a.838.838 0 0 0 .209.133c.119.089.179.192.179.31s-.12.368-.358.752c-.238.383-.849 1.312-1.847 2.816a326.541 326.541 0 0 0-6.12 9.612c-3.113 5.13-4.691 7.711-4.721 7.74-.03.03-.045.06-.06.089-.015.059-.044.088-.119.088l-.208-.044-.417.103-.239-.044-.253.044h-.089l-.849.118c-.506 0-.759-.177-.759-.516 0-.147.044-.324.134-.53.312-.738 1.906-3.406 4.765-8.036-1.876.045-3.738.074-5.57.074l-3.276-.015c-.536.855-1.28 2.064-2.219 3.642-2.025 3.435-3.097 5.16-3.231 5.19-.134.03-.239.059-.328.059-.09 0-.164-.045-.223-.148-.075-.088-.12-.147-.15-.147a.431.431 0 0 0-.163.059c-.075.044-.194.059-.358.059l-.357-.015-.134-.088c-.015 0-.03.014-.045.044s-.06.044-.119.044c-.432 0-.655-.177-.655-.545 0-.236.09-.56.253-.959.179-.398.402-.826.685-1.283.283-.456.998-1.562 2.174-3.287C93.418 23.665 94 22.795 94 22.78c-.194-.015-.417-.015-.67-.03-.522 0-.879-.014-1.102-.058-.581-.104-.983-.575-1.192-1.416-.119-.413-.164-.678-.149-.81 0-.266.12-.413.358-.413l.402.103c.208.015.685.03 1.46.074a30.91 30.91 0 0 0 1.667.059l.864-.03a190.497 190.497 0 0 1 4.751-6.973c-1.34 1.09-2.83 1.636-4.468 1.636-.775 0-1.445-.177-1.996-.546-.566-.368-.834-.84-.834-1.4 0-.56.209-1.003.64-1.342.433-.324.835-.486 1.222-.486s.58.059.58.177c0 .044-.059.088-.163.132-.104.06-.164.103-.164.148 0 .162.179.31.536.427.358.118.76.192 1.206.192.447 0 .983-.133 1.639-.383.655-.251 1.325-.59 2.025-.988a47.14 47.14 0 0 0 2.323-1.4c.328-.163.626-.237.923-.237.298 0 .492.03.626.104a.93.93 0 0 1 .283.191c.059.06.134.148.193.25.075.104.135.192.209.237.06.059.104.118.104.191 0 .074-.044.177-.119.34-.074.147-.462.766-1.162 1.842-.699 1.077-1.608 2.448-2.71 4.114a284.042 284.042 0 0 0-2.412 3.686c2.725 0 5.659-.045 8.816-.148 3.842-6 5.867-9.14 6.076-9.435.208-.295.402-.487.581-.575.178-.089.387-.133.64-.133l1.296.103ZM121.252 20.038c.313 0 .625.132.938.412.328.28.477.693.477 1.253 0 .56-.194 1.283-.596 2.183a14.517 14.517 0 0 1-1.638 2.727 23.586 23.586 0 0 1-2.279 2.595 12.126 12.126 0 0 1-2.68 1.99c-.968.516-1.832.782-2.621.782-.79 0-1.415-.251-1.892-.738-.476-.486-.715-1.164-.715-2.034 0-.87.224-1.843.656-2.89.432-1.061.983-1.99 1.668-2.801a16.196 16.196 0 0 1 2.219-2.182c1.653-1.327 3.112-1.976 4.363-1.976.566 0 .983.133 1.266.413.104.089.149.177.149.236v.088c.164-.058.387-.058.685-.058Zm-1.534 2.005h-.104c-.358 0-.536-.251-.536-.767-.745.236-1.519.663-2.339 1.268a11.175 11.175 0 0 0-2.189 2.152c-1.31 1.652-1.965 3.052-1.98 4.188 0 .56.208.84.625.84.417 0 1.043-.28 1.862-.811.819-.53 1.638-1.312 2.457-2.33.804-1.002 1.415-1.887 1.817-2.624.402-.737.61-1.238.61-1.518-.015-.266-.089-.398-.223-.398ZM122.339 31.64l-.745-.029h-.268a1.046 1.046 0 0 1-.328-.177c-.119-.088-.208-.162-.268-.191-.059-.03-.089-.118-.089-.221 0-.104.045-.295.119-.546 1.981-4.32 3.902-7.784 5.763-10.364.209-.28.537-.502.983-.65a4.237 4.237 0 0 1 1.326-.22c.253 0 .387.191.387.59 0 .117-.045.265-.119.442-.075.191-.283.486-.611.914-.327.427-.715.914-1.161 1.445-.447.53-.7.855-.76.943 1.4-1.43 2.651-2.492 3.783-3.2 1.132-.692 1.936-1.046 2.442-1.046.506 0 .894.148 1.162.428.268.28.402.59.402.914 0 .324-.03.604-.075.81a2.69 2.69 0 0 1-.253.679c-.119.236-.223.442-.313.604a6.726 6.726 0 0 1-.431.649c-.209.265-.343.457-.417.56-.075.103-.239.295-.477.575-.238.28-.372.442-.387.472.283-.28.685-.693 1.191-1.253.506-.56.938-1.018 1.296-1.386.357-.369.789-.796 1.325-1.268.536-.472 1.028-.855 1.475-1.135 1.102-.678 2.218-1.032 3.35-1.032.387 0 .715.118.983.368.268.251.402.531.402.87 0 .34-.417 1.15-1.236 2.418-.819 1.268-1.653 2.55-2.472 3.833-.819 1.283-1.236 2.094-1.236 2.433 0 .457.089.737.253.826.179.088.387.118.626.103.238-.015.595-.177 1.027-.472.447-.295.834-.59 1.177-.914.566-.501 1.072-.988 1.563-1.46a.502.502 0 0 1 .343-.132c.194 0 .313.147.357.442.045.295.06.59.06.914 0 .324-.03.53-.089.649-.298.56-.954 1.253-1.951 2.079-1.013.81-1.981 1.223-2.904 1.223-.119 0-.194 0-.239-.015-1.042-.103-1.772-.383-2.174-.855-.402-.471-.596-1.032-.596-1.666 0-.634.224-1.43.671-2.344.446-.914.923-1.754 1.459-2.491.536-.738 1.013-1.416 1.459-2.02.447-.605.671-.929.671-.973 0-.045-.045-.074-.12-.074-.312 0-1.012.501-2.114 1.519-1.862 1.725-3.47 3.39-4.825 4.983-.358.427-1.207 1.489-2.532 3.214-.149.206-.402.31-.73.31-.327 0-.67-.06-1.027-.192-.358-.133-.536-.295-.536-.487 0-.103.804-1.518 2.427-4.246 1.623-2.727 2.427-4.216 2.427-4.452 0-.25-.148-.369-.446-.369-.298 0-.924.442-1.862 1.327-2.576 2.433-4.572 4.865-5.986 7.268-.09.148-.269.37-.537.664-.268.295-.506.413-.595.413Z"/><path d="M151.87 20.244c0 .664-.268 1.253-.819 1.755-.551.5-1.161.752-1.861.752-.224 0-.373-.06-.447-.163-.074-.103-.104-.25-.104-.413 0-.162.015-.339.059-.5-.372.117-.774.309-1.221.56-.447.25-.998.619-1.653 1.12-.655.501-.983.855-.983 1.106 0 .074.119.118.358.118.238 0 .61-.089 1.102-.25.491-.163.849-.252 1.042-.252.194 0 .328.015.387.03.134.074.268.221.432.457.149.236.224.427.224.56 0 .133-.134.31-.403.53a2.95 2.95 0 0 1-.893.502c-.343.118-.566.207-.67.266-2.145 1.194-3.217 2.005-3.217 2.447 0 .781.67 1.18 2.025 1.18.864 0 1.743-.266 2.607-.811a18.441 18.441 0 0 0 2.01-1.416c.596-.472.968-.766 1.132-.884.164-.118.283-.163.357-.163.268 0 .402.295.402.885 0 .59-.029.973-.104 1.15-.074.192-.268.413-.611.693-2.174 1.754-4.244 2.639-6.18 2.639-1.042 0-1.861-.147-2.487-.428-1.147-.516-1.712-1.297-1.712-2.358 0-1.386.968-2.448 2.918-3.156-.387-.177-.64-.383-.744-.663-.119-.265-.164-.693-.164-1.283s.283-1.209.834-1.872a6.468 6.468 0 0 1 2.04-1.622c1.787-.958 3.396-1.43 4.796-1.43.342 0 .67.074 1.027.236.358.162.521.383.521.678ZM.908 35.724c3.916 1.622 7.907 2.876 11.973 3.834a91.505 91.505 0 0 0 12.256 2.152c2.055.28 4.125.31 6.166.502 2.07.014 4.125.176 6.18.059l3.083-.074c1.027-.015 2.055-.148 3.082-.207 1.028-.088 2.056-.132 3.068-.265l3.053-.428c4.096-.442 8.072-1.385 12.033-2.52 4.006-1.092 7.789-2.536 11.795-4.04 4.095-1.49 8.533-2.462 13.03-1.99 2.22.28 4.453.987 6.27 2.285 1.832 1.282 3.142 3.11 3.976 5.027-1.25-1.71-2.814-3.11-4.616-3.98-1.802-.87-3.783-1.224-5.749-1.165-3.976.059-7.893 1.37-11.571 3.022a99.242 99.242 0 0 1-11.87 4.85c-4.11 1.313-8.354 2.36-12.657 2.89-8.563 1.12-17.335 1.136-25.794-.56-4.244-.767-8.384-1.96-12.39-3.48C8.25 40.06 4.363 38.217.908 35.725ZM143.322 11.177c-3.321-1.4-6.701-2.491-10.127-3.346-3.41-.9-6.865-1.534-10.335-1.976-1.727-.265-3.485-.324-5.212-.53-1.742-.045-3.47-.222-5.212-.148-.864.015-1.743.015-2.607 0-.863 0-1.742.088-2.606.118-.863.059-1.742.073-2.606.162l-2.591.31c-3.47.28-6.836.987-10.201 1.857-3.41.811-6.642 1.961-10.082 3.111-3.53 1.165-7.357 1.872-11.2 1.342-1.89-.31-3.797-.973-5.3-2.153-1.535-1.165-2.577-2.757-3.218-4.423 1.058 1.46 2.368 2.654 3.872 3.391 1.504.737 3.157 1.047 4.81 1.032 3.336 0 6.643-1.061 9.77-2.388 3.187-1.504 6.686-2.831 10.171-3.922 3.515-1.047 7.178-1.843 10.842-2.226 7.312-.767 14.788-.59 21.951 1.09 3.589.753 7.089 1.903 10.439 3.318 3.366 1.445 6.613 3.126 9.442 5.381Z"/></g><defs><clipPath id="a"><path fill="#fff" d="M0 0h152v47H0z"/></clipPath></defs>
        </g>
    </symbol>

    <symbol id="logo-5" viewBox="0 0 123 50">
        <g>
            <g clip-path="url(#a)" fill="#B1B1B1"><path d="M.282 31.052V.887h17.945v30.15H.282v.015Zm15.771-7.018.462-3.332-1.668-.162-.506 2.565c-1.043.516-2.324.767-3.858.767-2.084 0-3.738-.65-4.944-1.961-1.221-1.313-1.817-3.037-1.817-5.19 0-2.094.596-3.819 1.773-5.175C6.67 10.19 8.22 9.512 10.14 9.512c.983 0 1.817.118 2.487.339a7.74 7.74 0 0 1 1.861.899l.492 2.536 1.698-.162-.492-3.332c-.715-.605-1.564-1.091-2.546-1.475-.983-.368-2.204-.56-3.649-.56-1.713 0-3.187.413-4.423 1.253a8.585 8.585 0 0 0-2.89 3.318 9.945 9.945 0 0 0-1.027 4.467c0 2.52.79 4.63 2.368 6.31 1.579 1.68 3.634 2.521 6.18 2.521 2.502 0 4.453-.53 5.853-1.592ZM24.318 31.052V.887h7.714v30.15h-7.714v.015Zm.82-5.691h6.09v-1.519h-2.1V7.005h-4.02v1.519h2.13v15.318h-2.1v1.519ZM38.123 31.052V.887h13.553v30.15H38.123v.015Zm2.458-16.66-.432 2.742 1.564.192.461-2.05c.67-.324 1.43-.486 2.323-.486 1.073 0 1.802.265 2.175.796.372.53.55 1.223.55 2.079v1.061c-.327-.03-.67-.059-1.042-.074-.372-.014-.73-.03-1.087-.03-1.34 0-2.62.237-3.812.709-1.192.471-1.787 1.46-1.787 2.948 0 1.268.402 2.138 1.22 2.61.82.486 1.624.722 2.413.722.968 0 1.802-.25 2.487-.752.685-.501 1.222-1.061 1.609-1.71v.06c.03 1.606.76 2.402 2.189 2.402.55 0 1.072-.133 1.563-.398l-.03-1.224a2.005 2.005 0 0 1-.803.163c-.686 0-1.028-.428-1.028-1.283v-5.647c0-2.654-1.43-3.98-4.289-3.98-.79 0-1.534.088-2.234.265a7.19 7.19 0 0 0-2.01.885Zm6.627 6.516c-.075.973-.477 1.755-1.206 2.315-.73.575-1.505.855-2.339.855a2.946 2.946 0 0 1-1.504-.428c-.491-.28-.73-.81-.73-1.577 0-.929.373-1.519 1.088-1.799.73-.28 1.534-.413 2.442-.413.402 0 .79.015 1.162.06.372.029.744.058 1.072.073v.914h.015ZM57.781 31.052V.887h12.316v30.15H57.781v.015Zm11.02-9.127c0-.943-.253-1.636-.759-2.093-.506-.457-1.117-.767-1.861-.944a30.673 30.673 0 0 0-2.204-.442c-.73-.118-1.356-.31-1.862-.56-.506-.25-.76-.693-.76-1.327 0-.605.239-1.047.73-1.342.492-.295 1.102-.427 1.862-.427.878 0 1.697.191 2.457.59l.298 1.916 1.564-.192-.298-2.771c-.507-.31-1.117-.56-1.847-.767a8.526 8.526 0 0 0-2.338-.324 6.225 6.225 0 0 0-3.053.781c-.938.516-1.4 1.4-1.4 2.669 0 .928.253 1.607.76 2.034.506.442 1.131.737 1.891.914.76.177 1.504.325 2.249.457.744.118 1.37.325 1.876.59.507.265.76.722.76 1.386 0 .678-.328 1.18-.983 1.504-.656.324-1.4.486-2.249.486-.953 0-1.847-.191-2.666-.59l.075-1.577-1.504-.162-.373 2.698c.522.339 1.207.619 2.04.84.834.221 1.668.34 2.517.34 1.445 0 2.651-.325 3.62-.989.967-.634 1.459-1.548 1.459-2.698ZM76.188 31.052V.887h12.316v30.15H76.188v.015Zm11.02-9.127c0-.943-.253-1.636-.76-2.093-.506-.457-1.116-.767-1.861-.944a30.681 30.681 0 0 0-2.204-.442c-.73-.118-1.355-.31-1.861-.56-.507-.25-.76-.693-.76-1.327 0-.605.238-1.047.73-1.342.491-.295 1.102-.427 1.861-.427.879 0 1.698.191 2.457.59l.298 1.916 1.564-.192-.298-2.771c-.506-.31-1.117-.56-1.846-.767a8.526 8.526 0 0 0-2.339-.324 6.225 6.225 0 0 0-3.052.781c-.939.516-1.4 1.4-1.4 2.669 0 .928.253 1.607.76 2.034.505.442 1.131.737 1.89.914.76.177 1.504.325 2.25.457.744.118 1.37.325 1.876.59.506.265.76.722.76 1.386 0 .678-.328 1.18-.984 1.504-.655.324-1.4.486-2.249.486-.953 0-1.846-.191-2.665-.59l.074-1.577-1.504-.162-.372 2.698c.521.339 1.206.619 2.04.84.834.221 1.668.34 2.517.34 1.444 0 2.65-.325 3.619-.989.968-.634 1.46-1.548 1.46-2.698ZM94.595 31.052V.887h8.116v30.15h-8.116v.015Zm1.191-5.691h6.091v-1.519h-2.1v-10.35h-4.035v1.519H97.9v8.831h-2.1v1.519h-.015Zm1.907-17.368v2.433h2.055V7.993h-2.055ZM108.802 31.052V.887h12.971v30.15h-12.971v.015Zm11.81-9.687-1.624-.354c-.357 2.005-1.444 3.008-3.231 3.008-1.192 0-2.1-.398-2.726-1.194-.625-.796-.938-1.917-.938-3.332 0-1.283.283-2.374.834-3.288.551-.914 1.474-1.356 2.755-1.356.983 0 1.847.22 2.562.663l.461 2.005 1.564-.191-.462-2.86c-.61-.458-1.251-.782-1.921-.959a8.555 8.555 0 0 0-2.189-.265c-1.861 0-3.276.648-4.2 1.946-.938 1.297-1.399 2.771-1.399 4.408 0 1.902.491 3.39 1.489 4.438.983 1.061 2.308 1.592 3.961 1.592s2.874-.457 3.649-1.356c.774-.915 1.251-1.873 1.415-2.905ZM8.041 47.52a3.542 3.542 0 0 1-1.504 1.445c-.67.339-1.46.516-2.383.516H1.49v-8.316h2.665c.924 0 1.728.163 2.383.502.655.339 1.162.81 1.504 1.445.343.633.506 1.356.506 2.211 0 .84-.163 1.578-.506 2.197Zm-1.474.162c.58-.56.864-1.342.864-2.359s-.283-1.799-.864-2.359-1.415-.84-2.517-.84H2.546v6.398H4.05c1.102 0 1.936-.28 2.517-.84ZM14.072 42.035v2.846h3.188v.825h-3.188v2.905h3.545v.87h-4.632v-8.316h4.632v.87h-3.545ZM27.029 48.419c-.194.339-.477.62-.864.826-.387.206-.864.324-1.444.324a3.673 3.673 0 0 1-1.49-.295 2.751 2.751 0 0 1-1.042-.826 2.436 2.436 0 0 1-.447-1.194h1.162c.03.236.104.472.238.693.134.221.343.413.596.56.253.148.566.221.938.221.477 0 .849-.117 1.102-.383.253-.265.387-.575.387-.973 0-.339-.09-.62-.268-.826a1.985 1.985 0 0 0-.655-.5c-.253-.119-.626-.252-1.072-.399-.537-.177-.954-.339-1.281-.486a2.044 2.044 0 0 1-.82-.693c-.223-.31-.342-.708-.342-1.21 0-.427.104-.81.313-1.15.209-.324.506-.589.908-.766.388-.177.864-.265 1.385-.265.82 0 1.49.191 1.966.59.492.398.76.899.849 1.518h-1.162c-.06-.324-.238-.62-.506-.87-.283-.25-.655-.383-1.132-.383-.432 0-.789.118-1.042.339-.268.221-.387.545-.387.944 0 .324.089.59.253.78.179.207.387.355.64.473s.61.235 1.043.383c.536.177.968.34 1.31.501.328.162.61.398.834.708.224.31.343.737.343 1.268-.03.383-.12.752-.313 1.09ZM32.837 41.166v8.315h-1.088v-8.316h1.088ZM43.827 41.8a3.462 3.462 0 0 1 1.34 1.96h-1.146a2.486 2.486 0 0 0-.998-1.209c-.462-.31-1.013-.457-1.653-.457-.566 0-1.087.133-1.534.398a2.896 2.896 0 0 0-1.072 1.12c-.253.487-.387 1.062-.387 1.726 0 .678.134 1.268.387 1.754.253.487.625.87 1.087 1.135.462.266.998.398 1.608.398.522 0 .983-.117 1.415-.324a2.851 2.851 0 0 0 1.057-.958c.283-.413.432-.914.492-1.475h-3.306v-.796h4.214v.988a4.196 4.196 0 0 1-.625 1.799 3.572 3.572 0 0 1-1.385 1.268c-.58.31-1.236.471-1.98.471-.805 0-1.52-.176-2.145-.53a3.626 3.626 0 0 1-1.445-1.504c-.342-.634-.521-1.371-.521-2.197 0-.825.179-1.563.521-2.197a3.813 3.813 0 0 1 1.445-1.503c.61-.354 1.325-.546 2.13-.546 1.012-.03 1.831.206 2.501.678ZM56.322 49.48h-1.088l-4.363-6.575v6.576h-1.087v-8.316h1.087l4.363 6.576v-6.575h1.088v8.315ZM71.988 48.419c-.193.339-.476.62-.864.826-.387.206-.863.324-1.444.324a3.673 3.673 0 0 1-1.49-.295 2.751 2.751 0 0 1-1.042-.826 2.437 2.437 0 0 1-.447-1.194h1.162c.03.236.104.472.238.693.134.221.343.413.596.56.253.148.566.221.938.221.477 0 .849-.117 1.102-.383.253-.265.387-.575.387-.973 0-.339-.089-.62-.268-.826a1.986 1.986 0 0 0-.655-.5c-.253-.119-.625-.252-1.072-.399-.536-.177-.953-.339-1.28-.486a2.043 2.043 0 0 1-.82-.693c-.223-.31-.343-.708-.343-1.21 0-.427.105-.81.313-1.15.209-.324.507-.589.909-.766.387-.177.863-.265 1.385-.265.819 0 1.489.191 1.965.59.492.398.76.899.85 1.518h-1.162c-.06-.324-.239-.62-.507-.87-.283-.25-.655-.383-1.131-.383-.432 0-.79.118-1.043.339-.268.221-.387.545-.387.944 0 .324.09.59.253.78.179.207.387.355.64.473.254.118.611.235 1.043.383.536.177.968.34 1.31.501.328.162.611.398.834.708.224.31.343.737.343 1.268a2.56 2.56 0 0 1-.313 1.09ZM81.862 41.166v.87h-2.368v7.445h-1.102v-7.446h-2.368v-.87h5.838ZM86.926 41.166v4.983c0 .81.178 1.415.55 1.813.373.383.864.59 1.52.59.64 0 1.131-.192 1.489-.59.357-.398.536-.988.536-1.799V41.18h1.087v4.983c0 1.136-.283 1.99-.849 2.551-.566.575-1.325.855-2.278.855-.938 0-1.698-.28-2.264-.855-.566-.575-.849-1.415-.849-2.55V41.18h1.058v-.014ZM103.322 47.52a3.542 3.542 0 0 1-1.505 1.445c-.67.339-1.459.516-2.382.516h-2.666v-8.316h2.666c.923 0 1.727.163 2.382.502.656.339 1.162.81 1.505 1.445.342.633.506 1.356.506 2.211 0 .84-.164 1.578-.506 2.197Zm-1.46.162c.581-.56.864-1.342.864-2.359s-.283-1.799-.864-2.359-1.415-.84-2.517-.84h-1.504v6.398h1.504c1.088 0 1.936-.28 2.517-.84ZM109.368 41.166v8.315h-1.087v-8.316h1.087ZM120.031 41.608c.625.368 1.117.87 1.474 1.518.357.649.536 1.386.536 2.197 0 .81-.179 1.548-.536 2.197a3.926 3.926 0 0 1-1.474 1.518c-.626.369-1.326.546-2.1.546-.775 0-1.489-.177-2.115-.546a3.964 3.964 0 0 1-1.489-1.518c-.358-.65-.536-1.386-.536-2.197 0-.811.178-1.548.536-2.197a3.861 3.861 0 0 1 1.489-1.518c.64-.37 1.34-.546 2.115-.546.774 0 1.474.177 2.1.546Zm-3.664.855a2.647 2.647 0 0 0-1.072 1.135c-.253.486-.387 1.061-.387 1.725 0 .648.134 1.224.387 1.725.253.501.61.87 1.072 1.135.462.265.968.398 1.549.398.566 0 1.087-.133 1.549-.398a2.738 2.738 0 0 0 1.072-1.135c.253-.487.387-1.062.387-1.71 0-.664-.134-1.239-.387-1.725a2.738 2.738 0 0 0-1.072-1.136 3.026 3.026 0 0 0-1.549-.398 2.915 2.915 0 0 0-1.549.384Z"/></g><defs><clipPath id="a"><path fill="#fff" d="M0 0h123v50H0z"/></clipPath></defs>
        </g>
    </symbol>

    <symbol id="facebook" viewBox="0 0 21 20">
        <g>
            <path id="Vector" fill-rule="evenodd" clip-rule="evenodd" d="M20.2035 10.2536C20.2035 5.04883 15.821 0.828613 10.416 0.828613C5.01107 0.828613 0.62854 5.04883 0.62854 10.2536C0.62854 14.9577 4.20709 18.8569 8.88674 19.5646V12.9789H6.40098V10.2536H8.88674V8.17717C8.88674 5.81545 10.3483 4.50983 12.5837 4.50983C13.6547 4.50983 14.775 4.69413 14.775 4.69413V7.01377H13.5402C12.325 7.01377 11.9449 7.74 11.9449 8.48643V10.2536H14.6592L14.2257 12.9789H11.9453V19.5654C16.625 18.8581 20.2035 14.959 20.2035 10.2536Z"/>
        </g>
    </symbol>

    <symbol id="insta" viewBox="0 0 20 20">
        <g>
            <path id="Vector" d="M13.8655 2.39931C14.9461 2.40241 15.9816 2.81719 16.7458 3.55304C17.5099 4.28889 17.9407 5.28602 17.9439 6.32667V14.1806C17.9407 15.2212 17.5099 16.2183 16.7458 16.9542C15.9816 17.69 14.9461 18.1048 13.8655 18.1079H5.70952C4.62885 18.1048 3.59336 17.69 2.82921 16.9542C2.06506 16.2183 1.63433 15.2212 1.6311 14.1806V6.32667C1.63433 5.28602 2.06506 4.28889 2.82921 3.55304C3.59336 2.81719 4.62885 2.40241 5.70952 2.39931H13.8655ZM13.8655 0.828613H5.70952C2.56922 0.828613 0 3.30268 0 6.32667V14.1806C0 17.2046 2.56922 19.6786 5.70952 19.6786H13.8655C17.0058 19.6786 19.575 17.2046 19.575 14.1806V6.32667C19.575 3.30268 17.0058 0.828613 13.8655 0.828613Z"/>
            <path id="Vector_2" d="M15.0889 6.32695C14.8469 6.32695 14.6104 6.25785 14.4092 6.1284C14.208 5.99895 14.0512 5.81495 13.9586 5.59967C13.866 5.3844 13.8418 5.14752 13.889 4.91898C13.9362 4.69045 14.0527 4.48053 14.2238 4.31576C14.3949 4.151 14.6129 4.0388 14.8502 3.99334C15.0875 3.94788 15.3335 3.97121 15.5571 4.06038C15.7806 4.14955 15.9717 4.30055 16.1062 4.49429C16.2406 4.68804 16.3123 4.91581 16.3123 5.14882C16.3127 5.30363 16.2813 5.45698 16.2199 5.60007C16.1586 5.74315 16.0685 5.87316 15.9548 5.98263C15.8411 6.09209 15.7061 6.17886 15.5575 6.23795C15.4089 6.29704 15.2497 6.32728 15.0889 6.32695ZM9.78749 7.11209C10.4328 7.11209 11.0636 7.29635 11.6001 7.64158C12.1367 7.9868 12.5548 8.47749 12.8018 9.05158C13.0487 9.62567 13.1133 10.2573 12.9874 10.8668C12.8616 11.4762 12.5508 12.0361 12.0945 12.4754C11.6382 12.9148 11.0569 13.2141 10.424 13.3353C9.79111 13.4565 9.1351 13.3943 8.53893 13.1565C7.94276 12.9187 7.4332 12.516 7.0747 11.9993C6.71619 11.4827 6.52484 10.8752 6.52484 10.2539C6.52577 9.42091 6.86981 8.62229 7.48147 8.03328C8.09314 7.44427 8.92247 7.11298 9.78749 7.11209ZM9.78749 5.54139C8.8196 5.54139 7.87344 5.81778 7.06867 6.33559C6.26389 6.85341 5.63665 7.5894 5.26625 8.4505C4.89586 9.31159 4.79895 10.2591 4.98777 11.1732C5.1766 12.0874 5.64268 12.927 6.32709 13.5861C7.01149 14.2451 7.88347 14.694 8.83277 14.8758C9.78206 15.0576 10.766 14.9643 11.6602 14.6076C12.5545 14.251 13.3188 13.6469 13.8565 12.872C14.3942 12.097 14.6812 11.1859 14.6812 10.2539C14.6812 9.00406 14.1656 7.80542 13.2479 6.92165C12.3301 6.03789 11.0854 5.54139 9.78749 5.54139Z"/>

        </g>
    </symbol>

    <symbol id="pinteres" viewBox="0 0 21 20">
        <g>
            <path id="Vector" d="M10.7468 0C5.25484 0 0.801758 4.4511 0.801758 9.94064C0.801758 14.0101 3.25251 17.5071 6.75548 19.047C6.72885 18.3547 6.75104 17.5204 6.92863 16.766C7.11954 15.9583 8.20729 11.3474 8.20729 11.3474C8.20729 11.3474 7.88762 10.7128 7.88762 9.77644C7.88762 8.3031 8.74006 7.20253 9.8056 7.20253C10.7113 7.20253 11.1464 7.88151 11.1464 8.69362C11.1464 9.60337 10.5648 10.9613 10.2673 12.2217C10.0187 13.2779 10.7957 14.1343 11.839 14.1343C13.7215 14.1343 14.9913 11.7158 14.9913 8.84894C14.9913 6.66999 13.5217 5.04132 10.8534 5.04132C7.83879 5.04132 5.95633 7.29128 5.95633 9.80307C5.95633 10.6684 6.21383 11.2808 6.61341 11.7513C6.79544 11.9687 6.82208 12.0575 6.75548 12.306C6.70665 12.4879 6.60009 12.9273 6.55125 13.1048C6.48466 13.3577 6.28043 13.4465 6.054 13.3533C4.66435 12.7853 4.01615 11.2675 4.01615 9.55455C4.01615 6.73212 6.4003 3.34609 11.1242 3.34609C14.9202 3.34609 17.4198 6.09308 17.4198 9.03977C17.4198 12.9406 15.2488 15.8518 12.0521 15.8518C10.9777 15.8518 9.96987 15.2704 9.62357 14.6136C9.62357 14.6136 9.0464 16.9035 8.92209 17.3473C8.71342 18.115 8.30052 18.8783 7.92314 19.4774C8.83857 19.7474 9.78796 19.8849 10.7424 19.8857C16.2344 19.8857 20.6875 15.4346 20.6875 9.94508C20.6875 4.45554 16.2388 0 10.7468 0Z"/>
        </g>
    </symbol>

    <symbol id="twitter" viewBox="0 0 21 20">
        <g>
            <path id="Vector" d="M21.3598 2.64532C20.5731 2.98716 19.7407 3.21237 18.8889 3.31384C19.7841 2.78968 20.4572 1.95695 20.7822 0.971832C19.9359 1.46671 19.0115 1.81394 18.0487 1.99865C17.6432 1.57373 17.1556 1.2357 16.6155 1.0051C16.0753 0.774503 15.4939 0.656148 14.9066 0.657234C12.5288 0.657234 10.6045 2.55356 10.6045 4.8912C10.6028 5.21636 10.6401 5.54055 10.7155 5.85684C9.01038 5.77691 7.34076 5.34194 5.81341 4.57977C4.28606 3.8176 2.93462 2.74501 1.84555 1.43062C1.46347 2.07473 1.26141 2.80963 1.26048 3.55853C1.26048 5.02665 2.02644 6.32437 3.18303 7.08465C2.49778 7.06839 1.82658 6.88702 1.2264 6.55595V6.60838C1.2264 8.66201 2.712 10.3705 4.67824 10.7593C4.30849 10.8579 3.92747 10.9078 3.54481 10.9079C3.27329 10.9084 3.00238 10.882 2.73603 10.8292C3.28265 12.5115 4.87355 13.7349 6.75808 13.7699C5.22677 14.95 3.34671 15.5879 1.41341 15.5832C1.07024 15.5827 0.727396 15.5622 0.386597 15.522C2.35335 16.7779 4.63955 17.4422 6.97306 17.4358C14.8974 17.4358 19.2267 10.9822 19.2267 5.38494C19.2267 5.20143 19.2219 5.01791 19.2131 4.83877C20.0534 4.24106 20.7803 3.49828 21.3598 2.64532Z"/>
        </g>
    </symbol>

    <symbol id="tel-white" viewBox="0 0 27 27">
        <g>
            <path id="Vector" d="M26.9368 20.379C26.6222 20.0439 25.5114 19.0531 23.4695 17.7422C21.4125 16.4199 19.8955 15.5954 19.4604 15.4032C19.422 15.3862 19.3798 15.3799 19.3381 15.3851C19.2965 15.3903 19.2571 15.4068 19.2241 15.4327C18.5232 15.9793 17.3431 16.9834 17.2798 17.0377C16.8712 17.3878 16.8712 17.3878 16.5367 17.2787C15.9485 17.0859 14.1211 16.1155 12.5288 14.5196C10.9365 12.9237 9.91609 11.0511 9.72323 10.4635C9.61293 10.1284 9.61293 10.1284 9.9643 9.7198C10.0185 9.65651 11.0232 8.47645 11.5699 7.77612C11.5958 7.74314 11.6123 7.70372 11.6175 7.66209C11.6227 7.62047 11.6164 7.57821 11.5994 7.53987C11.4072 7.10412 10.5827 5.58775 9.26036 3.53077C7.94769 1.48946 6.95806 0.378703 6.62296 0.0640988C6.59221 0.0350811 6.55421 0.0148947 6.51295 0.00566677C6.47168 -0.00356118 6.4287 -0.00148897 6.38852 0.0116648C5.21716 0.414193 4.08699 0.927812 3.01343 1.54551C1.97705 2.14797 0.99587 2.84074 0.0813184 3.61575C0.0493935 3.64289 0.0254587 3.67821 0.0120806 3.71792C-0.00129751 3.75763 -0.00361416 3.80023 0.00537896 3.84116C0.131342 4.42818 0.733434 6.87872 2.60179 10.2731C4.50811 13.7373 5.82922 15.5122 8.62873 18.3021C11.4282 21.092 13.2592 22.4926 16.7271 24.3989C20.1215 26.2673 22.5733 26.8699 23.1591 26.9947C23.2001 27.0036 23.2428 27.0013 23.2826 26.9879C23.3224 26.9745 23.3578 26.9506 23.3851 26.9188C24.16 26.0042 24.8526 25.0231 25.4548 23.9867C26.0723 22.9131 26.586 21.7829 26.9886 20.6116C27.0015 20.5717 27.0035 20.5291 26.9944 20.4882C26.9853 20.4473 26.9654 20.4096 26.9368 20.379Z"/>
        </g>
    </symbol>

    <symbol id="logo" viewBox="0 0 400 79" fill="none">
        <g>
            <path d="M116.215 59.22C116.432 59.22 116.54 59.35 116.54 59.61C116.54 59.87 116.432 60 116.215 60C115.392 60 114.07 59.9567 112.25 59.87C110.43 59.7833 109.108 59.74 108.285 59.74C107.202 59.74 105.923 59.7833 104.45 59.87C102.977 59.9567 101.828 60 101.005 60C100.832 60 100.745 59.87 100.745 59.61C100.745 59.35 100.832 59.22 101.005 59.22C102.262 59.22 103.172 59.09 103.735 58.83C104.342 58.5267 104.645 58.05 104.645 57.4C104.645 56.75 104.277 55.645 103.54 54.085L98.6 44.075H82.87L79.75 51.095C79.1867 52.395 78.905 53.565 78.905 54.605C78.905 56.1217 79.4467 57.27 80.53 58.05C81.6133 58.83 83.13 59.22 85.08 59.22C85.2967 59.22 85.405 59.35 85.405 59.61C85.405 59.87 85.2967 60 85.08 60C84.3 60 83.1733 59.9567 81.7 59.87C80.0533 59.7833 78.6233 59.74 77.41 59.74C76.24 59.74 74.875 59.7833 73.315 59.87C71.9283 59.9567 70.78 60 69.87 60C69.6533 60 69.545 59.87 69.545 59.61C69.545 59.35 69.6533 59.22 69.87 59.22C71.0833 59.22 72.1017 58.9817 72.925 58.505C73.7483 58.0283 74.55 57.1833 75.33 55.97C76.11 54.7133 77.0417 52.8717 78.125 50.445L92.1 18.985C92.1867 18.855 92.3817 18.79 92.685 18.79C92.9883 18.79 93.1617 18.855 93.205 18.985L109.13 51.095C110.647 54.215 111.903 56.36 112.9 57.53C113.94 58.6567 115.045 59.22 116.215 59.22ZM83.585 42.45H97.82L90.345 27.305L83.585 42.45ZM137.011 55.84C137.141 55.84 137.249 55.9267 137.336 56.1C137.466 56.2733 137.466 56.4033 137.336 56.49C135.733 58.0067 134.216 59.1117 132.786 59.805C131.356 60.455 129.839 60.78 128.236 60.78C126.373 60.78 124.791 60.3467 123.491 59.48C122.234 58.57 121.606 57.075 121.606 54.995V40.305C121.606 38.875 121.368 37.9217 120.891 37.445C120.458 36.9683 119.591 36.73 118.291 36.73C118.248 36.73 118.183 36.6867 118.096 36.6C118.053 36.47 118.031 36.34 118.031 36.21C118.031 36.08 118.053 35.9717 118.096 35.885C118.183 35.755 118.248 35.69 118.291 35.69C122.364 35.5167 124.921 33.7617 125.961 30.425C126.048 30.2517 126.221 30.165 126.481 30.165C126.784 30.165 126.936 30.2517 126.936 30.425V35.56C128.973 35.5167 131.854 35.3 135.581 34.91C135.668 34.91 135.754 35.0833 135.841 35.43C135.971 35.7333 136.036 36.08 136.036 36.47C136.036 36.86 135.949 37.25 135.776 37.64C135.646 38.03 135.494 38.2033 135.321 38.16C132.894 37.5967 130.099 37.25 126.936 37.12V52.85C126.936 54.54 127.348 55.7967 128.171 56.62C129.038 57.4 130.229 57.79 131.746 57.79C133.566 57.79 135.278 57.1617 136.881 55.905L137.011 55.84ZM158.91 55.84C159.04 55.84 159.149 55.9267 159.235 56.1C159.365 56.2733 159.365 56.4033 159.235 56.49C157.632 58.0067 156.115 59.1117 154.685 59.805C153.255 60.455 151.739 60.78 150.135 60.78C148.272 60.78 146.69 60.3467 145.39 59.48C144.134 58.57 143.505 57.075 143.505 54.995V40.305C143.505 38.875 143.267 37.9217 142.79 37.445C142.357 36.9683 141.49 36.73 140.19 36.73C140.147 36.73 140.082 36.6867 139.995 36.6C139.952 36.47 139.93 36.34 139.93 36.21C139.93 36.08 139.952 35.9717 139.995 35.885C140.082 35.755 140.147 35.69 140.19 35.69C144.264 35.5167 146.82 33.7617 147.86 30.425C147.947 30.2517 148.12 30.165 148.38 30.165C148.684 30.165 148.835 30.2517 148.835 30.425V35.56C150.872 35.5167 153.754 35.3 157.48 34.91C157.567 34.91 157.654 35.0833 157.74 35.43C157.87 35.7333 157.935 36.08 157.935 36.47C157.935 36.86 157.849 37.25 157.675 37.64C157.545 38.03 157.394 38.2033 157.22 38.16C154.794 37.5967 151.999 37.25 148.835 37.12V52.85C148.835 54.54 149.247 55.7967 150.07 56.62C150.937 57.4 152.129 57.79 153.645 57.79C155.465 57.79 157.177 57.1617 158.78 55.905L158.91 55.84ZM175.285 60.845C172.685 60.845 170.388 60.2383 168.395 59.025C166.401 57.7683 164.863 56.1 163.78 54.02C162.696 51.8967 162.155 49.6 162.155 47.13C162.155 44.3133 162.848 41.93 164.235 39.98C165.665 37.9867 167.463 36.5133 169.63 35.56C171.84 34.5633 174.093 34.065 176.39 34.065C179.033 34.065 181.33 34.6933 183.28 35.95C185.273 37.2067 186.79 38.875 187.83 40.955C188.87 42.9917 189.39 45.18 189.39 47.52C189.39 50.12 188.74 52.4383 187.44 54.475C186.183 56.5117 184.471 58.0933 182.305 59.22C180.138 60.3033 177.798 60.845 175.285 60.845ZM177.235 59.545C179.141 59.545 180.593 58.7 181.59 57.01C182.63 55.32 183.15 52.85 183.15 49.6C183.15 46.6967 182.738 44.1617 181.915 41.995C181.135 39.8283 180.051 38.1817 178.665 37.055C177.321 35.9283 175.848 35.365 174.245 35.365C172.295 35.365 170.821 36.1667 169.825 37.77C168.828 39.3733 168.33 41.735 168.33 44.855C168.33 47.6717 168.698 50.2067 169.435 52.46C170.215 54.67 171.276 56.4033 172.62 57.66C174.006 58.9167 175.545 59.545 177.235 59.545ZM210.536 34.26C211.533 34.26 212.486 34.585 213.396 35.235C214.306 35.885 214.761 36.665 214.761 37.575C214.761 38.3983 214.501 39.07 213.981 39.59C213.504 40.11 212.833 40.37 211.966 40.37C211.403 40.37 210.926 40.2617 210.536 40.045C210.189 39.785 209.821 39.4383 209.431 39.005C209.041 38.615 208.694 38.3333 208.391 38.16C208.088 37.9433 207.719 37.835 207.286 37.835C206.809 37.835 206.289 38.03 205.726 38.42C205.206 38.7667 204.383 39.525 203.256 40.695V54.735C203.256 55.9483 203.429 56.88 203.776 57.53C204.123 58.1367 204.708 58.57 205.531 58.83C206.354 59.09 207.568 59.22 209.171 59.22C209.344 59.22 209.431 59.35 209.431 59.61C209.431 59.87 209.344 60 209.171 60C207.741 60 206.593 59.9783 205.726 59.935L200.591 59.87L196.821 59.935C196.214 59.9783 195.369 60 194.286 60C194.156 60 194.091 59.87 194.091 59.61C194.091 59.35 194.156 59.22 194.286 59.22C195.759 59.22 196.734 58.9167 197.211 58.31C197.688 57.7033 197.926 56.5117 197.926 54.735V42.32C197.926 40.9333 197.753 39.915 197.406 39.265C197.103 38.615 196.583 38.29 195.846 38.29C195.196 38.29 194.113 38.615 192.596 39.265H192.531C192.358 39.265 192.228 39.1567 192.141 38.94C192.054 38.7233 192.076 38.5933 192.206 38.55L200.721 34.39C200.981 34.3033 201.133 34.26 201.176 34.26C201.609 34.26 202.043 34.7367 202.476 35.69C202.909 36.6 203.169 37.8133 203.256 39.33C204.946 37.4233 206.354 36.1017 207.481 35.365C208.608 34.6283 209.626 34.26 210.536 34.26ZM248.693 59.22C248.823 59.22 248.888 59.35 248.888 59.61C248.888 59.87 248.823 60 248.693 60C247.609 60 246.764 59.9783 246.158 59.935L242.388 59.87L238.683 59.935C238.033 59.9783 237.166 60 236.083 60C235.953 60 235.888 59.87 235.888 59.61C235.888 59.35 235.953 59.22 236.083 59.22C237.556 59.22 238.531 58.9167 239.008 58.31C239.484 57.7033 239.723 56.5117 239.723 54.735V44.985C239.723 42.5583 239.268 40.7817 238.358 39.655C237.491 38.485 236.104 37.9 234.198 37.9C233.071 37.9 231.923 38.16 230.753 38.68C229.583 39.2 228.521 39.8933 227.568 40.76V54.735C227.568 56.5117 227.806 57.7033 228.283 58.31C228.759 58.9167 229.734 59.22 231.208 59.22C231.338 59.22 231.403 59.35 231.403 59.61C231.403 59.87 231.338 60 231.208 60C230.124 60 229.279 59.9783 228.673 59.935L224.903 59.87L221.133 59.935C220.526 59.9783 219.681 60 218.598 60C218.468 60 218.403 59.87 218.403 59.61C218.403 59.35 218.468 59.22 218.598 59.22C220.071 59.22 221.046 58.9167 221.523 58.31C221.999 57.7033 222.238 56.5117 222.238 54.735V42.32C222.238 40.9333 222.064 39.915 221.718 39.265C221.414 38.615 220.894 38.29 220.158 38.29C219.508 38.29 218.424 38.615 216.908 39.265H216.843C216.669 39.265 216.539 39.1567 216.453 38.94C216.366 38.7233 216.388 38.5933 216.518 38.55L225.033 34.39C225.293 34.3033 225.444 34.26 225.488 34.26C225.921 34.26 226.354 34.7583 226.788 35.755C227.264 36.7083 227.524 37.965 227.568 39.525C230.601 35.9283 233.894 34.13 237.448 34.13C239.831 34.13 241.694 34.8667 243.038 36.34C244.381 37.77 245.053 39.72 245.053 42.19V54.735C245.053 56.5117 245.291 57.7033 245.768 58.31C246.244 58.9167 247.219 59.22 248.693 59.22ZM274.591 55.905C274.678 55.905 274.764 55.9917 274.851 56.165C274.981 56.3383 275.003 56.4683 274.916 56.555C273.313 58.0283 271.709 59.1117 270.106 59.805C268.503 60.455 266.769 60.78 264.906 60.78C262.263 60.78 259.966 60.195 258.016 59.025C256.109 57.855 254.636 56.3167 253.596 54.41C252.599 52.5033 252.101 50.445 252.101 48.235C252.101 45.6783 252.729 43.3383 253.986 41.215C255.243 39.0917 256.954 37.4233 259.121 36.21C261.331 34.9533 263.779 34.325 266.466 34.325C269.066 34.325 271.081 34.9533 272.511 36.21C273.941 37.4667 274.656 39.33 274.656 41.8C274.656 43.0567 274.396 43.685 273.876 43.685L258.016 43.75C257.973 44.14 257.951 44.725 257.951 45.505C257.951 49.3183 258.818 52.3517 260.551 54.605C262.328 56.815 264.841 57.92 268.091 57.92C269.304 57.92 270.323 57.79 271.146 57.53C271.969 57.2267 273.074 56.7067 274.461 55.97L274.591 55.905ZM264.126 35.625C262.523 35.625 261.201 36.2533 260.161 37.51C259.164 38.7233 258.493 40.4133 258.146 42.58L268.546 42.385C268.459 37.8783 266.986 35.625 264.126 35.625ZM305.404 34.91C305.49 34.91 305.534 35.04 305.534 35.3C305.534 35.56 305.49 35.69 305.404 35.69C304.104 35.69 302.977 36.21 302.024 37.25C301.114 38.29 300.269 39.8717 299.489 41.995L292.014 61.82C290.454 65.98 288.959 69.2517 287.529 71.635C286.099 74.0183 284.647 75.7083 283.174 76.705C281.7 77.745 280.075 78.265 278.299 78.265C277.085 78.265 276.154 78.005 275.504 77.485C274.81 77.0083 274.464 76.2717 274.464 75.275C274.464 74.4083 274.745 73.7367 275.309 73.26C275.829 72.8267 276.479 72.61 277.259 72.61C277.779 72.61 278.212 72.675 278.559 72.805C278.949 72.9783 279.339 73.195 279.729 73.455C280.162 73.715 280.53 73.91 280.834 74.04C281.18 74.17 281.592 74.235 282.069 74.235C283.065 74.235 283.975 73.8233 284.799 73C285.665 72.22 286.554 70.8983 287.464 69.035C288.417 67.1717 289.544 64.5283 290.844 61.105L280.574 40.305C279.62 38.4417 278.862 37.2067 278.299 36.6C277.779 35.9933 277.129 35.69 276.349 35.69C276.219 35.69 276.154 35.56 276.154 35.3C276.154 35.04 276.219 34.91 276.349 34.91C277.475 34.91 278.342 34.9317 278.949 34.975L281.484 35.04L285.904 34.975C286.554 34.9317 287.442 34.91 288.569 34.91C288.699 34.91 288.764 35.04 288.764 35.3C288.764 35.56 288.699 35.69 288.569 35.69C287.399 35.69 286.532 35.7983 285.969 36.015C285.449 36.1883 285.189 36.535 285.189 37.055C285.189 37.445 285.297 37.835 285.514 38.225L293.444 54.605L297.799 41.995C298.189 40.8683 298.384 39.915 298.384 39.135C298.384 36.8383 296.932 35.69 294.029 35.69C293.942 35.69 293.899 35.56 293.899 35.3C293.899 35.04 293.942 34.91 294.029 34.91C295.199 34.91 296.087 34.9317 296.694 34.975L300.594 35.04L303.129 34.975C303.605 34.9317 304.364 34.91 305.404 34.91ZM312.143 38.29C312.143 39.6333 312.598 40.76 313.508 41.67C314.462 42.58 315.827 43.5333 317.603 44.53C319.163 45.3967 320.355 46.1117 321.178 46.675C322.045 47.2383 322.782 47.9967 323.388 48.95C324.038 49.9033 324.363 51.0517 324.363 52.395C324.363 53.8683 323.995 55.2333 323.258 56.49C322.522 57.7467 321.417 58.765 319.943 59.545C318.513 60.325 316.802 60.715 314.808 60.715C312.425 60.715 310.237 60.1083 308.243 58.895C307.983 58.635 307.853 58.375 307.853 58.115L307.723 52.135C307.723 52.005 307.832 51.94 308.048 51.94C308.308 51.8967 308.46 51.9183 308.503 52.005C309.24 54.1717 310.345 55.9483 311.818 57.335C313.335 58.7217 314.938 59.415 316.628 59.415C317.712 59.415 318.557 59.1333 319.163 58.57C319.77 58.0067 320.073 57.1617 320.073 56.035C320.073 54.3883 319.597 53.0883 318.643 52.135C317.69 51.1383 316.303 50.1633 314.483 49.21C313.01 48.43 311.862 47.78 311.038 47.26C310.215 46.6967 309.5 45.96 308.893 45.05C308.33 44.0967 308.048 42.9267 308.048 41.54C308.048 39.07 308.937 37.2283 310.713 36.015C312.533 34.8017 314.722 34.195 317.278 34.195C318.968 34.195 320.702 34.52 322.478 35.17C322.868 35.3433 323.063 35.5817 323.063 35.885C323.063 36.8817 323.042 37.6617 322.998 38.225L322.933 41.345C322.933 41.475 322.803 41.54 322.543 41.54C322.283 41.54 322.153 41.475 322.153 41.345C322.153 40.4783 321.807 39.59 321.113 38.68C320.42 37.7267 319.532 36.9467 318.448 36.34C317.365 35.7333 316.26 35.43 315.133 35.43C313.14 35.43 312.143 36.3833 312.143 38.29ZM347.563 55.84C347.693 55.84 347.801 55.9267 347.888 56.1C348.018 56.2733 348.018 56.4033 347.888 56.49C346.284 58.0067 344.768 59.1117 343.338 59.805C341.908 60.455 340.391 60.78 338.788 60.78C336.924 60.78 335.343 60.3467 334.043 59.48C332.786 58.57 332.158 57.075 332.158 54.995V40.305C332.158 38.875 331.919 37.9217 331.443 37.445C331.009 36.9683 330.143 36.73 328.843 36.73C328.799 36.73 328.734 36.6867 328.648 36.6C328.604 36.47 328.583 36.34 328.583 36.21C328.583 36.08 328.604 35.9717 328.648 35.885C328.734 35.755 328.799 35.69 328.843 35.69C332.916 35.5167 335.473 33.7617 336.513 30.425C336.599 30.2517 336.773 30.165 337.033 30.165C337.336 30.165 337.488 30.2517 337.488 30.425V35.56C339.524 35.5167 342.406 35.3 346.133 34.91C346.219 34.91 346.306 35.0833 346.393 35.43C346.523 35.7333 346.588 36.08 346.588 36.47C346.588 36.86 346.501 37.25 346.328 37.64C346.198 38.03 346.046 38.2033 345.873 38.16C343.446 37.5967 340.651 37.25 337.488 37.12V52.85C337.488 54.54 337.899 55.7967 338.723 56.62C339.589 57.4 340.781 57.79 342.298 57.79C344.118 57.79 345.829 57.1617 347.433 55.905L347.563 55.84ZM373.297 55.905C373.384 55.905 373.47 55.9917 373.557 56.165C373.687 56.3383 373.709 56.4683 373.622 56.555C372.019 58.0283 370.415 59.1117 368.812 59.805C367.209 60.455 365.475 60.78 363.612 60.78C360.969 60.78 358.672 60.195 356.722 59.025C354.815 57.855 353.342 56.3167 352.302 54.41C351.305 52.5033 350.807 50.445 350.807 48.235C350.807 45.6783 351.435 43.3383 352.692 41.215C353.949 39.0917 355.66 37.4233 357.827 36.21C360.037 34.9533 362.485 34.325 365.172 34.325C367.772 34.325 369.787 34.9533 371.217 36.21C372.647 37.4667 373.362 39.33 373.362 41.8C373.362 43.0567 373.102 43.685 372.582 43.685L356.722 43.75C356.679 44.14 356.657 44.725 356.657 45.505C356.657 49.3183 357.524 52.3517 359.257 54.605C361.034 56.815 363.547 57.92 366.797 57.92C368.01 57.92 369.029 57.79 369.852 57.53C370.675 57.2267 371.78 56.7067 373.167 55.97L373.297 55.905ZM362.832 35.625C361.229 35.625 359.907 36.2533 358.867 37.51C357.87 38.7233 357.199 40.4133 356.852 42.58L367.252 42.385C367.165 37.8783 365.692 35.625 362.832 35.625ZM394.555 34.26C395.551 34.26 396.505 34.585 397.415 35.235C398.325 35.885 398.78 36.665 398.78 37.575C398.78 38.3983 398.52 39.07 398 39.59C397.523 40.11 396.851 40.37 395.985 40.37C395.421 40.37 394.945 40.2617 394.555 40.045C394.208 39.785 393.84 39.4383 393.45 39.005C393.06 38.615 392.713 38.3333 392.41 38.16C392.106 37.9433 391.738 37.835 391.305 37.835C390.828 37.835 390.308 38.03 389.745 38.42C389.225 38.7667 388.401 39.525 387.275 40.695V54.735C387.275 55.9483 387.448 56.88 387.795 57.53C388.141 58.1367 388.726 58.57 389.55 58.83C390.373 59.09 391.586 59.22 393.19 59.22C393.363 59.22 393.45 59.35 393.45 59.61C393.45 59.87 393.363 60 393.19 60C391.76 60 390.611 59.9783 389.745 59.935L384.61 59.87L380.84 59.935C380.233 59.9783 379.388 60 378.305 60C378.175 60 378.11 59.87 378.11 59.61C378.11 59.35 378.175 59.22 378.305 59.22C379.778 59.22 380.753 58.9167 381.23 58.31C381.706 57.7033 381.945 56.5117 381.945 54.735V42.32C381.945 40.9333 381.771 39.915 381.425 39.265C381.121 38.615 380.601 38.29 379.865 38.29C379.215 38.29 378.131 38.615 376.615 39.265H376.55C376.376 39.265 376.246 39.1567 376.16 38.94C376.073 38.7233 376.095 38.5933 376.225 38.55L384.74 34.39C385 34.3033 385.151 34.26 385.195 34.26C385.628 34.26 386.061 34.7367 386.495 35.69C386.928 36.6 387.188 37.8133 387.275 39.33C388.965 37.4233 390.373 36.1017 391.5 35.365C392.626 34.6283 393.645 34.26 394.555 34.26Z" fill="white"/>
            <path d="M58.44 23.8236C58.44 19.6883 55.009 16.3362 50.7765 16.3362H9.66352C5.43101 16.3362 2 19.6883 2 23.8236" stroke="url(#paint0_radial_2_11)" stroke-width="3.5" stroke-miterlimit="10"/>
            <path d="M4 61.6953C4 65.6965 7.25233 68.9407 11.2634 68.9407H50.2295C54.2406 68.9407 57.4929 65.6965 57.4929 61.6953" stroke="url(#paint1_radial_2_11)" stroke-width="3.5" stroke-miterlimit="10"/>
            <path d="M18.5782 27H15V57.7272H18.5782V27Z" fill="url(#paint2_radial_2_11)"/>
            <path d="M25.2317 27H21.6534V57.7272H25.2317V27Z" fill="url(#paint3_radial_2_11)"/>
            <path d="M32.0104 27H28.4321V57.7272H32.0104V27Z" fill="url(#paint4_radial_2_11)"/>
            <path d="M38.6003 27H35.0221V57.7272H38.6003V27Z" fill="url(#paint5_radial_2_11)"/>
            <path d="M45.3489 27H41.7706V57.7272H45.3489V27Z" fill="url(#paint6_radial_2_11)"/>
            <path d="M18.5782 73.5918H15V79H18.5782V73.5918Z" fill="url(#paint7_radial_2_11)"/>
            <path d="M25.2317 73.5918H21.6534V79H25.2317V73.5918Z" fill="url(#paint8_radial_2_11)"/>
            <path d="M32.0105 73.5918H28.4323V79H32.0105V73.5918Z" fill="url(#paint9_radial_2_11)"/>
            <path d="M38.602 73.5918H35.0238V79H38.602V73.5918Z" fill="url(#paint10_radial_2_11)"/>
            <path d="M45.349 73.5918H41.7708V79H45.349V73.5918Z" fill="url(#paint11_radial_2_11)"/>
            <path d="M25.23 1H21.6517V6.40822H25.23V1Z" fill="url(#paint12_radial_2_11)"/>
            <path d="M32.0104 1H28.4321V6.40822H32.0104V1Z" fill="url(#paint13_radial_2_11)"/>
            <path d="M38.6002 1H35.022V6.40822H38.6002V1Z" fill="url(#paint14_radial_2_11)"/>
            <path d="M48.4865 24.5694V21H13V24.5694H48.4865Z" fill="url(#paint15_radial_2_11)"/>
            <path d="M48 64.3699V60.8005H12.5136V64.3699H48Z" fill="url(#paint16_radial_2_11)"/>
            <path d="M48 11.8438V8.27441H12.5136V11.8438H48Z" fill="url(#paint17_radial_2_11)"/>
            <defs>
            <radialGradient id="paint0_radial_2_11" cx="0" cy="0" r="1" gradientUnits="userSpaceOnUse" gradientTransform="translate(30.22 20.0799) rotate(90) scale(3.7437 28.22)">
            <stop stop-color="#DBBC80"/>
            <stop offset="1" stop-color="#AB8219"/>
            </radialGradient>
            <radialGradient id="paint1_radial_2_11" cx="0" cy="0" r="1" gradientUnits="userSpaceOnUse" gradientTransform="translate(30.7464 65.318) rotate(90) scale(3.62271 26.7464)">
            <stop stop-color="#DBBC80"/>
            <stop offset="1" stop-color="#AB8219"/>
            </radialGradient>
            <radialGradient id="paint2_radial_2_11" cx="0" cy="0" r="1" gradientUnits="userSpaceOnUse" gradientTransform="translate(16.7891 42.3636) rotate(90) scale(15.3636 1.78911)">
            <stop stop-color="#DBBC80"/>
            <stop offset="1" stop-color="#AB8219"/>
            </radialGradient>
            <radialGradient id="paint3_radial_2_11" cx="0" cy="0" r="1" gradientUnits="userSpaceOnUse" gradientTransform="translate(23.4426 42.3636) rotate(90) scale(15.3636 1.78911)">
            <stop stop-color="#DBBC80"/>
            <stop offset="1" stop-color="#AB8219"/>
            </radialGradient>
            <radialGradient id="paint4_radial_2_11" cx="0" cy="0" r="1" gradientUnits="userSpaceOnUse" gradientTransform="translate(30.2212 42.3636) rotate(90) scale(15.3636 1.78911)">
            <stop stop-color="#DBBC80"/>
            <stop offset="1" stop-color="#AB8219"/>
            </radialGradient>
            <radialGradient id="paint5_radial_2_11" cx="0" cy="0" r="1" gradientUnits="userSpaceOnUse" gradientTransform="translate(36.8112 42.3636) rotate(90) scale(15.3636 1.78911)">
            <stop stop-color="#DBBC80"/>
            <stop offset="1" stop-color="#AB8219"/>
            </radialGradient>
            <radialGradient id="paint6_radial_2_11" cx="0" cy="0" r="1" gradientUnits="userSpaceOnUse" gradientTransform="translate(43.5597 42.3636) rotate(90) scale(15.3636 1.78911)">
            <stop stop-color="#DBBC80"/>
            <stop offset="1" stop-color="#AB8219"/>
            </radialGradient>
            <radialGradient id="paint7_radial_2_11" cx="0" cy="0" r="1" gradientUnits="userSpaceOnUse" gradientTransform="translate(16.7891 76.2959) rotate(90) scale(2.70411 1.78911)">
            <stop stop-color="#DBBC80"/>
            <stop offset="1" stop-color="#AB8219"/>
            </radialGradient>
            <radialGradient id="paint8_radial_2_11" cx="0" cy="0" r="1" gradientUnits="userSpaceOnUse" gradientTransform="translate(23.4426 76.2959) rotate(90) scale(2.70411 1.78911)">
            <stop stop-color="#DBBC80"/>
            <stop offset="1" stop-color="#AB8219"/>
            </radialGradient>
            <radialGradient id="paint9_radial_2_11" cx="0" cy="0" r="1" gradientUnits="userSpaceOnUse" gradientTransform="translate(30.2214 76.2959) rotate(90) scale(2.70411 1.78911)">
            <stop stop-color="#DBBC80"/>
            <stop offset="1" stop-color="#AB8219"/>
            </radialGradient>
            <radialGradient id="paint10_radial_2_11" cx="0" cy="0" r="1" gradientUnits="userSpaceOnUse" gradientTransform="translate(36.8129 76.2959) rotate(90) scale(2.70411 1.78911)">
            <stop stop-color="#DBBC80"/>
            <stop offset="1" stop-color="#AB8219"/>
            </radialGradient>
            <radialGradient id="paint11_radial_2_11" cx="0" cy="0" r="1" gradientUnits="userSpaceOnUse" gradientTransform="translate(43.5599 76.2959) rotate(90) scale(2.70411 1.78911)">
            <stop stop-color="#DBBC80"/>
            <stop offset="1" stop-color="#AB8219"/>
            </radialGradient>
            <radialGradient id="paint12_radial_2_11" cx="0" cy="0" r="1" gradientUnits="userSpaceOnUse" gradientTransform="translate(23.4408 3.70411) rotate(90) scale(2.70411 1.78911)">
            <stop stop-color="#DBBC80"/>
            <stop offset="1" stop-color="#AB8219"/>
            </radialGradient>
            <radialGradient id="paint13_radial_2_11" cx="0" cy="0" r="1" gradientUnits="userSpaceOnUse" gradientTransform="translate(30.2212 3.70411) rotate(90) scale(2.70411 1.78911)">
            <stop stop-color="#DBBC80"/>
            <stop offset="1" stop-color="#AB8219"/>
            </radialGradient>
            <radialGradient id="paint14_radial_2_11" cx="0" cy="0" r="1" gradientUnits="userSpaceOnUse" gradientTransform="translate(36.8111 3.70411) rotate(90) scale(2.70411 1.78911)">
            <stop stop-color="#DBBC80"/>
            <stop offset="1" stop-color="#AB8219"/>
            </radialGradient>
            <radialGradient id="paint15_radial_2_11" cx="0" cy="0" r="1" gradientUnits="userSpaceOnUse" gradientTransform="translate(30.7432 22.7847) rotate(-180) scale(17.7432 1.78468)">
            <stop stop-color="#DBBC80"/>
            <stop offset="1" stop-color="#AB8219"/>
            </radialGradient>
            <radialGradient id="paint16_radial_2_11" cx="0" cy="0" r="1" gradientUnits="userSpaceOnUse" gradientTransform="translate(30.2568 62.5852) rotate(180) scale(17.7432 1.78469)">
            <stop stop-color="#DBBC80"/>
            <stop offset="1" stop-color="#AB8219"/>
            </radialGradient>
            <radialGradient id="paint17_radial_2_11" cx="0" cy="0" r="1" gradientUnits="userSpaceOnUse" gradientTransform="translate(30.2568 10.0591) rotate(-180) scale(17.7432 1.78468)">
            <stop stop-color="#DBBC80"/>
            <stop offset="1" stop-color="#AB8219"/>
            </radialGradient>
            </defs>
        </g>
    </symbol>

    <symbol id="mail" viewBox="0 0 18 16">
        <g>
            <path id="Vector" d="M17.3571 0.800049H0.642857C0.472361 0.800049 0.308848 0.86901 0.188288 0.991761C0.0677294 1.11451 0 1.281 0 1.45459V14.5455C0 14.7191 0.0677294 14.8856 0.188288 15.0083C0.308848 15.1311 0.472361 15.2 0.642857 15.2H17.3571C17.5276 15.2 17.6912 15.1311 17.8117 15.0083C17.9323 14.8856 18 14.7191 18 14.5455V1.45459C18 1.281 17.9323 1.11451 17.8117 0.991761C17.6912 0.86901 17.5276 0.800049 17.3571 0.800049ZM9.39455 9.17128C9.28173 9.26058 9.1429 9.30906 9 9.30906C8.8571 9.30906 8.71827 9.26058 8.60545 9.17128L2.31228 4.18773L3.10138 3.15437L9 7.82537L14.8986 3.15437L15.6877 4.18773L9.39455 9.17128Z"/>
        </g>
    </symbol>

    <!-- <symbol id="" viewBox="">
        <g>
            
        </g>
    </symbol> -->
</svg>